<svg width="128" height="128" viewBox="0 0 128 128" fill="none" xmlns="http://www.w3.org/2000/svg">
<path d="M27.1143 114.991V109.752H29.2098V114.991H28.5349V110.5H27.7811V114.991H27.1143Z" fill="#558653"/>
<path d="M32.1028 111.047V111.728C32.1028 112.566 31.7762 113.023 31.1122 113.023H30.7992V114.991H30.1351V109.752H31.1122C31.7762 109.754 32.1028 110.209 32.1028 111.047ZM30.7965 112.275H31.1094C31.3217 112.275 31.436 112.155 31.436 111.782V110.995C31.436 110.62 31.3217 110.5 31.1094 110.5H30.7965V112.275Z" fill="#558653"/>
<path d="M32.8512 114.991V109.752H33.4418V113.067L33.684 111.915L34.2283 109.752H34.9576V114.991H34.3589V111.3L34.0868 112.588L33.5316 114.991H32.8512Z" fill="#558653"/>
<path d="M37.856 110.957V111.145C37.856 111.684 37.7227 112.027 37.426 112.201C37.7825 112.373 37.9213 112.77 37.9213 113.322V113.75C37.9213 114.558 37.5784 114.991 36.9117 114.991H35.8666V109.752H36.8681C37.5594 109.754 37.856 110.149 37.856 110.957ZM36.5334 111.885H36.7919C37.0396 111.885 37.1893 111.749 37.1893 111.333V111.042C37.1893 110.666 37.0858 110.503 36.8518 110.503H36.5306V111.885H36.5334ZM36.5334 114.242H36.9144C37.1375 114.242 37.2573 114.114 37.2573 113.725V113.268C37.2573 112.781 37.1294 112.631 36.8273 112.631H36.5306V114.242H36.5334Z" fill="#558653"/>
<path d="M40.338 111.962V112.71H39.4263V114.245H40.5748V114.993H38.7623V109.755H40.5748V110.503H39.4263V111.962H40.338Z" fill="#558653"/>
<path d="M43.2854 109.755V110.503H42.5914V114.993H41.9274V110.503H41.2334V109.755H43.2854Z" fill="#558653"/>
<path d="M45.9416 113.733C45.9416 114.572 45.6041 115.051 44.951 115.051C44.2978 115.051 43.9604 114.572 43.9604 113.733V111.009C43.9604 110.171 44.2978 109.692 44.951 109.692C45.6041 109.692 45.9416 110.171 45.9416 111.009V111.518H45.3129V110.957C45.3129 110.582 45.1796 110.44 44.97 110.44C44.7578 110.44 44.6271 110.582 44.6271 110.957V113.785C44.6271 114.161 44.7605 114.294 44.97 114.294C45.1823 114.294 45.3129 114.161 45.3129 113.785V113.037H45.9416V113.733Z" fill="#558653"/>
<path d="M48.6467 109.755V110.503H47.9527V114.993H47.2887V110.503H46.5947V109.755H48.6467Z" fill="#558653"/>
<path d="M51.3628 110.957V111.145C51.3628 111.684 51.2294 112.027 50.9328 112.201C51.2893 112.373 51.4281 112.77 51.4281 113.322V113.75C51.4281 114.558 51.0852 114.991 50.4184 114.991H49.3734V109.752H50.3749C51.0689 109.754 51.3628 110.149 51.3628 110.957ZM50.0429 111.885H50.3014C50.5491 111.885 50.6988 111.749 50.6988 111.333V111.042C50.6988 110.666 50.5953 110.503 50.3613 110.503H50.0401V111.885H50.0429ZM50.0429 114.242H50.4239C50.647 114.242 50.7668 114.114 50.7668 113.725V113.268C50.7668 112.781 50.6389 112.631 50.3368 112.631H50.0401V114.242H50.0429Z" fill="#558653"/>
<path d="M52.4024 114.999V114.267C52.7399 114.297 52.9331 114.22 52.9875 113.839L52.993 113.793L52.0758 109.752H52.7344L53.0964 111.54L53.3005 112.767L53.4584 111.548L53.7604 109.752H54.4544L53.7414 113.657C53.5863 114.601 53.325 115.075 52.4024 114.999Z" fill="#558653"/>
<path d="M56.7513 111.962V112.71H55.8396V114.245H56.9881V114.993H55.1756V109.755H56.9881V110.503H55.8396V111.962H56.7513Z" fill="#558653"/>
<path d="M59.696 109.755H60.6186V114.993H59.9899V111.238L59.53 114.993H58.9013L58.406 111.289V114.993H57.8263V109.755H58.7489L59.2388 113.475L59.696 109.755Z" fill="#558653"/>
<path d="M64.9077 110.957V111.145C64.9077 111.684 64.7743 112.027 64.4777 112.201C64.8342 112.373 64.973 112.77 64.973 113.322V113.75C64.973 114.558 64.6301 114.991 63.9633 114.991H62.9183V109.752H63.9198C64.611 109.754 64.9077 110.149 64.9077 110.957ZM63.585 111.885H63.8436C64.0912 111.885 64.2409 111.749 64.2409 111.333V111.042C64.2409 110.666 64.1375 110.503 63.9035 110.503H63.5823V111.885H63.585ZM63.585 114.242H63.9661C64.1892 114.242 64.309 114.114 64.309 113.725V113.268C64.309 112.781 64.1811 112.631 63.879 112.631H63.5823V114.242H63.585Z" fill="#558653"/>
<path d="M67.2917 114.991L67.1774 114.041H66.3609L66.2466 114.991H65.637L66.3119 109.752H67.2835L67.9612 114.991H67.2917ZM67.0876 113.331L66.7664 110.683L66.4453 113.331H67.0876Z" fill="#558653"/>
<path d="M70.6391 113.733C70.6391 114.572 70.3017 115.051 69.6485 115.051C68.9954 115.051 68.6579 114.572 68.6579 113.733V111.009C68.6579 110.171 68.9954 109.692 69.6485 109.692C70.3017 109.692 70.6391 110.171 70.6391 111.009V111.518H70.0105V110.957C70.0105 110.582 69.8771 110.44 69.6676 110.44C69.458 110.44 69.3247 110.582 69.3247 110.957V113.785C69.3247 114.161 69.458 114.294 69.6676 114.294C69.8771 114.294 70.0105 114.161 70.0105 113.785V113.037H70.6391V113.733Z" fill="#558653"/>
<path d="M72.8599 114.991V109.752H73.5239V111.997H74.2778V109.752H74.9527V114.991H74.2778V112.745H73.5239V114.991H72.8599Z" fill="#558653"/>
<path d="M77.3585 114.991L77.2442 114.041H76.4277L76.3134 114.991H75.7038L76.3788 109.752H77.3503L78.028 114.991H77.3585ZM77.1544 113.331L76.8332 110.683L76.5121 113.331H77.1544Z" fill="#558653"/>
<path d="M81.0897 114.4C80.4256 114.4 80.099 113.943 80.099 113.105V111.676C80.099 110.838 80.4256 110.38 81.0897 110.38H81.3373V109.752H81.9905V110.38H82.2381C82.9022 110.38 83.2287 110.838 83.2287 111.676V113.105C83.2287 113.943 82.9022 114.4 82.2381 114.4H81.9905V114.991H81.3373V114.4H81.0897ZM81.0897 111.107C80.8774 111.107 80.7576 111.249 80.7576 111.624V113.159C80.7576 113.535 80.8774 113.682 81.0897 113.682H81.3373V111.107H81.0897ZM81.9905 113.682H82.2381C82.4504 113.682 82.5701 113.532 82.5701 113.159V111.624C82.5701 111.249 82.4504 111.107 82.2381 111.107H81.9905V113.682Z" fill="#558653"/>
<path d="M85.5938 114.991L85.4795 114.041H84.663L84.5487 114.991H83.9391L84.614 109.752H85.5856L86.2632 114.991H85.5938ZM85.3896 113.331L85.0685 110.683L84.7474 113.331H85.3896Z" fill="#558653"/>
<path d="M87.0198 109.755H88.8786V110.503H87.6838V111.842H88.0703C88.7343 111.842 89.0718 112.299 89.0718 113.137V113.698C89.0718 114.536 88.7343 114.993 88.0703 114.993H87.0198V109.755ZM88.4078 113.75V113.083C88.4078 112.707 88.2799 112.59 88.0703 112.59H87.6838V114.245H88.0703C88.2826 114.242 88.4078 114.122 88.4078 113.75Z" fill="#558653"/>
<path d="M91.9294 111.047V111.728C91.9294 112.566 91.6028 113.023 90.9387 113.023H90.6258V114.991H89.9617V109.752H90.9387C91.6028 109.754 91.9294 110.209 91.9294 111.047ZM90.6258 112.275H90.9387C91.151 112.275 91.2653 112.155 91.2653 111.782V110.995C91.2653 110.62 91.151 110.5 90.9387 110.5H90.6258V112.275Z" fill="#558653"/>
<path d="M92.6778 114.991V109.752H93.2684V113.067L93.5106 111.915L94.0549 109.752H94.7842V114.991H94.1855V111.3L93.9134 112.588L93.3582 114.991H92.6778Z" fill="#558653"/>
<path d="M96.36 113.382V114.991H95.6959V109.752H96.36V112.035L97.2281 109.752H97.8922L96.9696 112.087L97.8922 114.991H97.2091L96.5641 112.903L96.36 113.382Z" fill="#558653"/>
<path d="M100.214 111.962V112.71H99.3019V114.245H100.448V114.993H98.6351V109.755H100.448V110.503H99.3019V111.962H100.214Z" fill="#558653"/>
<path d="M38.8712 122.298V117.059H39.4617V120.374L39.7039 119.223L40.2482 117.059H40.9776V122.298H40.3789V118.61L40.1067 119.897L39.5515 122.301H38.8712V122.298Z" fill="#558653"/>
<path d="M42.8255 117.748C42.6132 117.748 42.4744 117.889 42.4744 118.265V118.692H41.8648V118.303C41.8648 117.464 42.1914 116.999 42.8418 116.999C43.4949 116.999 43.8324 117.478 43.8324 118.316V118.452C43.8324 119.013 43.6882 119.364 43.367 119.53C43.6991 119.71 43.8324 120.099 43.8324 120.63V121.041C43.8324 121.879 43.4949 122.358 42.8418 122.358C42.1886 122.358 41.8512 121.879 41.8512 121.041V120.464H42.4798V121.092C42.4798 121.468 42.6132 121.609 42.8227 121.609C43.035 121.609 43.1656 121.481 43.1656 121.019V120.608C43.1656 120.121 43.0323 119.941 42.7302 119.941H42.5669V119.193H42.7656C43.0132 119.193 43.1629 119.057 43.1629 118.64V118.349C43.1711 117.875 43.0377 117.748 42.8255 117.748Z" fill="#558653"/>
<path d="M46.641 122.298H45.2231V123H44.5781V121.563H44.8367C44.951 121.383 44.9863 121.187 45 120.883L45.1496 117.059H47.0084V121.563H47.2969V123H46.6383V122.298H46.641ZM45.4653 121.566H46.3335V117.81H45.7729L45.6531 120.872C45.6341 121.266 45.5742 121.438 45.4653 121.566Z" fill="#558653"/>
<path d="M49.6864 119.269V120.017H48.7747V121.552H49.9231V122.301H48.1106V117.062H49.9231V117.81H48.7747V119.269H49.6864Z" fill="#558653"/>
<path d="M50.9954 121.019L51.1042 117.062H52.9821V122.301H52.3071V117.81H51.7275L51.654 120.975C51.6295 121.933 51.3519 122.306 50.6879 122.306H50.5844V121.558C50.8865 121.558 50.9845 121.506 50.9954 121.019Z" fill="#558653"/>
<path d="M53.9292 122.298V117.059H54.5197V120.374L54.762 119.223L55.3063 117.059H56.0356V122.298H55.4369V118.61L55.1647 119.897L54.6095 122.301H53.9292V122.298Z" fill="#558653"/>
<path d="M58.1883 119.897L57.6331 122.301H56.95V117.062H57.5406V120.376L57.7828 119.225L58.3271 117.062H59.0565V122.301H58.4577V118.61L58.1883 119.897ZM58.3135 115.894C58.2944 116.172 58.1937 116.237 58.0114 116.237C57.8372 116.237 57.7447 116.169 57.7284 115.894H57.3174C57.3283 116.403 57.546 116.724 58.0114 116.724C58.4822 116.724 58.719 116.403 58.719 115.894H58.3135Z" fill="#558653"/>
<path d="M61.3561 122.298V117.059H61.9467V120.374L62.1889 119.223L62.7332 117.059H63.4625V122.298H62.8638V118.61L62.5917 119.897L62.0365 122.301H61.3561V122.298Z" fill="#558653"/>
<path d="M65.3132 117.748C65.1009 117.748 64.9621 117.889 64.9621 118.265V118.692H64.3525V118.303C64.3525 117.464 64.6791 116.999 65.3295 116.999C65.9827 116.999 66.3201 117.478 66.3201 118.316V118.452C66.3201 119.013 66.1759 119.364 65.8547 119.53C66.1868 119.71 66.3201 120.099 66.3201 120.63V121.041C66.3201 121.879 65.9827 122.358 65.3295 122.358C64.6763 122.358 64.3389 121.879 64.3389 121.041V120.464H64.9675V121.092C64.9675 121.468 65.1009 121.609 65.3104 121.609C65.52 121.609 65.6534 121.481 65.6534 121.019V120.608C65.6534 120.121 65.52 119.941 65.2179 119.941H65.0546V119.193H65.2533C65.5009 119.193 65.6506 119.057 65.6506 118.64V118.349C65.6561 117.875 65.5227 117.748 65.3132 117.748Z" fill="#558653"/>
<path d="M70.4459 117.062H71.3685V122.301H70.7398V118.545L70.2799 122.301H69.6512L69.1559 118.597V122.301H68.5762V117.062H69.4988L69.9887 120.782L70.4459 117.062Z" fill="#558653"/>
<path d="M73.7715 122.298L73.6572 121.348H72.8408L72.7265 122.298H72.1169L72.7918 117.059H73.7634L74.441 122.298H73.7715ZM73.5674 120.638L73.2463 117.99L72.9252 120.638H73.5674Z" fill="#558653"/>
<path d="M77.1163 121.041C77.1163 121.879 76.7788 122.358 76.1257 122.358C75.4725 122.358 75.135 121.879 75.135 121.041V118.316C75.135 117.478 75.4725 116.999 76.1257 116.999C76.7788 116.999 77.1163 117.478 77.1163 118.316V118.825H76.4876V118.265C76.4876 117.889 76.3543 117.748 76.1447 117.748C75.9352 117.748 75.8018 117.889 75.8018 118.265V121.092C75.8018 121.468 75.9352 121.601 76.1447 121.601C76.3543 121.601 76.4876 121.468 76.4876 121.092V120.344H77.1163V121.041Z" fill="#558653"/>
<path d="M79.8895 121.041C79.8895 121.879 79.552 122.358 78.8989 122.358C78.2457 122.358 77.9082 121.879 77.9082 121.041V118.316C77.9082 117.478 78.2457 116.999 78.8989 116.999C79.552 116.999 79.8895 117.478 79.8895 118.316V118.825H79.2608V118.265C79.2608 117.889 79.1275 117.748 78.9179 117.748C78.7084 117.748 78.575 117.889 78.575 118.265V121.092C78.575 121.468 78.7084 121.601 78.9179 121.601C79.1275 121.601 79.2608 121.468 79.2608 121.092V120.344H79.8895V121.041Z" fill="#558653"/>
<path d="M80.7332 122.298V117.059H81.3237V120.374L81.5659 119.223L82.1102 117.059H82.8396V122.298H82.2409V118.61L81.9687 119.897L81.4135 122.301H80.7332V122.298Z" fill="#558653"/>
<path d="M85.7407 118.265V118.452C85.7407 118.991 85.6073 119.334 85.3107 119.508C85.6672 119.68 85.806 120.077 85.806 120.63V121.057C85.806 121.865 85.4631 122.298 84.7963 122.298H83.7513V117.059H84.7528C85.444 117.062 85.7407 117.456 85.7407 118.265ZM84.418 119.193H84.6766C84.9242 119.193 85.0739 119.057 85.0739 118.64V118.349C85.0739 117.973 84.9705 117.81 84.7365 117.81H84.4153V119.193H84.418ZM84.418 121.549H84.7991C85.0222 121.549 85.142 121.422 85.142 121.032V120.575C85.142 120.088 85.0141 119.938 84.712 119.938H84.4153V121.549H84.418Z" fill="#558653"/>
<path d="M88.1247 122.298L88.0104 121.348H87.194L87.0797 122.298H86.4701L87.145 117.059H88.1166L88.7942 122.298H88.1247ZM87.9206 120.638L87.5995 117.99L87.2783 120.638H87.9206Z" fill="#558653"/>
<path d="M97.2064 27.3069V54.1299L100.516 55.507V25.9243L97.2064 27.3069Z" fill="#1D622C"/>
<path d="M49.6183 7.59509L48.2385 4.29392L27.2885 25.244L30.5815 26.6319L49.6183 7.59509Z" fill="#43723E"/>
<path d="M30.3093 27.3259L27 25.9298V55.5233L30.3093 54.2061V27.3259Z" fill="#1D622C"/>
<path d="M77.9001 73.9206L79.2908 77.2082L100.284 56.2173L96.9778 54.8429L77.9001 73.9206Z" fill="#005229"/>
<path d="M96.9206 26.6183L100.222 25.2385L79.2799 4.29392L77.8974 7.59509L96.9206 26.6183Z" fill="#43723E"/>
<path d="M49.6156 73.9206L30.5924 54.8946L27.2422 56.2282L48.2222 77.2054L49.6156 73.9206Z" fill="#005229"/>
<path d="M77.2116 7.30934L78.5968 4H48.9216L50.3069 7.30934H77.2116Z" fill="#558653"/>
<path d="M77.2115 74.2064H50.3041L48.8971 77.5184H78.6131L77.2115 74.2064Z" fill="#003116"/>
<path d="M57.1895 63.598C57.214 63.5544 57.1868 63.4837 57.1813 63.4238C57.1269 63.4374 57.0534 63.4374 57.0208 63.4728C56.8983 63.6034 56.7867 63.7449 56.6724 63.881C56.686 63.8946 56.6969 63.9082 56.7105 63.9191C56.9065 63.8729 57.0861 63.7858 57.1895 63.598Z" fill="#367A3A"/>
<path d="M70.1819 22.7157C70.6745 22.7212 71.0746 22.3592 71.0882 21.8911C71.1045 21.4012 70.68 20.9576 70.1928 20.9522C69.7247 20.9467 69.3165 21.3468 69.3111 21.8094C69.3056 22.3048 69.6975 22.7103 70.1819 22.7157Z" fill="#367A3A"/>
<path d="M58.8687 34.1405C57.2984 35.2319 55.8179 35.8986 54.302 36.6498C54.1197 36.7396 53.8013 36.8566 53.6353 36.9682C53.4638 37.0852 53.2951 37.2049 53.2842 37.3383C53.306 37.3655 53.3277 37.39 53.3495 37.4172C54.8409 36.8811 57.8835 35.3951 59.0347 34.3474C59.1735 34.2657 59.13 33.9582 58.8687 34.1405Z" fill="#367A3A"/>
<path d="M58.2182 62.6128C57.9298 63.5925 57.2167 64.2103 56.4084 64.7601C56.4602 64.7927 56.471 64.8036 56.4819 64.8036C56.501 64.8036 56.52 64.8009 56.5364 64.7927C57.4834 64.4525 58.0686 63.7803 58.3325 62.8169C58.3462 62.7625 58.3189 62.6972 58.3108 62.6373C58.2781 62.6291 58.2482 62.621 58.2182 62.6128Z" fill="#367A3A"/>
<path d="M57.2494 38.4922C55.1538 39.4638 53.0011 40.2938 50.8376 41.094C50.8484 41.1293 50.8566 41.1647 50.8675 41.2001C51.0117 41.1756 51.1614 41.162 51.3029 41.1239C52.7725 40.7266 54.1904 40.1877 55.6002 39.6189C57.9924 38.6528 60.2757 37.4825 62.4338 36.0701C62.7876 35.8387 63.1224 35.5802 63.4653 35.3326C63.4462 35.2972 63.4245 35.2618 63.4054 35.2264C61.4024 36.4075 59.3585 37.5125 57.2494 38.4922Z" fill="#367A3A"/>
<path d="M82.0667 56.005C81.9932 55.956 81.7782 56.054 81.7891 56.1057C82.0776 57.5263 82.2109 58.7129 81.6993 59.5484C81.5931 59.7226 81.2693 60.1716 81.4462 60.2206C81.5197 60.256 81.6231 60.2097 81.6421 60.1879C81.9279 59.8559 82.1919 59.5021 82.2735 59.0558C82.3497 58.6449 82.4123 58.2285 82.4314 57.8094C82.4558 57.2787 82.4069 56.6418 82.2572 56.1302C82.2436 56.0812 82.1265 56.0159 82.0667 56.005Z" fill="#367A3A"/>
<path d="M96.4634 27.2116L77.3068 8.05503H50.2143L31.0577 27.2116V54.3041L50.2143 73.4607H77.3068L96.4634 54.3041V27.2116ZM59.2116 62.2889C59.1163 62.5339 59.0238 62.7843 58.9639 63.0374C58.8061 63.7041 58.4115 64.2076 57.9162 64.6539C57.4018 65.1193 56.8357 65.4949 56.1853 65.7344C56.1499 65.748 56.1118 65.7589 56.0846 65.7833C55.807 66.0201 55.4967 65.9902 55.1729 65.9112C55.0885 65.8895 54.9878 65.9167 54.9171 65.8813C54.7456 65.7969 54.5497 65.718 54.4272 65.5792C54.0353 65.1384 53.6516 64.6866 53.3005 64.213C52.748 63.4646 52.6582 62.5938 52.7317 61.6984C52.748 61.497 52.7916 61.301 52.8079 61.0996C52.827 60.852 52.9494 60.6833 53.159 60.5554C53.5754 60.2968 54.0462 60.2097 54.517 60.1362C55.3253 60.0083 56.12 60.0791 57.116 60.3866C57.7202 60.5907 58.4877 60.95 59.0782 61.6113C59.2606 61.8154 59.3096 62.0304 59.2116 62.2889ZM60.1559 60.3866C60.0961 60.6751 59.9382 60.92 59.7178 61.1187C59.5463 61.2711 59.462 61.2684 59.2987 61.1105C58.191 60.0328 56.8058 59.6192 55.3253 59.4559C54.5823 59.3742 53.8992 59.6273 53.257 59.9866C53.042 60.1063 53.0039 60.109 52.895 59.8859C52.6718 59.4232 52.6365 58.9442 52.8161 58.4598C52.9304 58.1496 53.1018 57.8801 53.3087 57.6134C53.5808 57.2623 53.9645 57.1317 54.3129 56.9249C54.6939 56.699 55.1103 56.552 55.5539 56.5112C56.237 56.4513 56.9201 56.4405 57.3827 56.5793C58.3271 56.846 59.0211 57.1372 59.5137 57.7522C60.1315 58.5251 60.3628 59.4069 60.1559 60.3866ZM62.5781 54.1027C61.1357 54.6198 60.1097 53.8768 58.6727 54.4075C57.6957 54.7667 58.2373 55.7927 57.263 56.1656C57.1324 56.2146 56.041 56.2336 56.2125 55.9615C56.2751 55.9533 57.2358 55.8118 57.331 55.1124C57.2385 54.979 54.898 55.4226 54.7701 55.4471C54.2095 55.5587 53.6489 55.6757 53.0882 55.7873C52.963 55.8118 52.8242 55.7955 52.7099 55.839C52.3698 55.9696 52.0269 56.0975 51.7084 56.2717C51.5615 56.3534 51.4798 56.5439 51.3574 56.6745C51.3029 56.7317 51.2294 56.7861 51.156 56.8051C51.0199 56.8378 50.8757 56.8514 50.7341 56.8568C50.6797 56.8596 50.5926 56.8323 50.5763 56.7942C50.5572 56.748 50.5899 56.6745 50.6144 56.6173C50.628 56.5847 50.6797 56.5711 50.696 56.5411C50.7151 56.5058 50.7232 56.4568 50.7124 56.4214C50.7069 56.4051 50.647 56.3942 50.6144 56.3969C50.4375 56.416 50.2579 56.4187 50.0891 56.4677C49.7245 56.5711 49.3679 56.699 49.006 56.8187C48.9461 56.8378 48.8862 56.8568 48.8318 56.8813C48.693 56.9439 48.5515 57.0065 48.4209 57.08C48.1678 57.2215 47.9201 57.3739 47.6725 57.5236C47.5609 57.5916 47.4547 57.6678 47.3432 57.7359C47.0601 57.9101 46.7662 58.0706 46.4913 58.2557C46.2954 58.389 46.1185 58.5523 45.9334 58.702C45.9171 58.7129 45.9062 58.7292 45.8899 58.7401C45.0408 59.2681 44.1944 59.8015 43.3426 60.3213C43.1303 60.4519 42.8799 60.4683 42.654 60.3649C42.42 60.2587 42.1995 60.1226 41.9845 59.9811C41.8512 59.894 41.8702 59.7824 42.0254 59.7307C42.2077 59.6681 42.3982 59.63 42.5833 59.5729C43.0378 59.4287 43.4977 59.3007 43.9386 59.1211C44.1971 59.0177 44.4203 58.8299 44.6625 58.6802C44.8639 58.5551 45.0707 58.438 45.2667 58.3047C45.351 58.2502 45.4055 58.155 45.4898 58.0978C45.7375 57.9373 45.9933 57.7903 46.241 57.627C46.3634 57.5481 46.4614 57.4338 46.5866 57.3603C47.3051 56.9412 48.0317 56.533 48.7529 56.1166C48.8563 56.0567 48.9488 55.986 49.0876 55.8907C48.859 55.7982 48.6849 55.7138 48.5052 55.6567C47.9283 55.477 47.4928 55.0797 47.0275 54.7259C46.3988 54.2469 45.7538 53.7843 45.1333 53.2971C44.8067 53.0413 44.4856 52.7828 44.0719 52.693C43.631 52.5977 43.1847 52.5297 42.7411 52.4507C41.1545 52.1623 39.5787 51.8248 38.0901 51.1853C37.6628 51.0029 37.2491 50.758 36.879 50.4804C36.5279 50.2164 36.3402 49.8381 36.4109 49.3618C36.4327 49.2231 36.3347 49.0679 36.3048 48.9183C36.2776 48.7931 36.2476 48.6651 36.2558 48.54C36.264 48.3848 36.381 48.3358 36.5171 48.4039C36.5524 48.4202 36.5851 48.442 36.6096 48.4719C37.1158 49.0598 37.7962 49.4108 38.4221 49.8354C39.3229 50.445 40.319 50.8559 41.3395 51.1907C41.8621 51.3621 42.439 51.3812 42.9942 51.452C43.0622 51.4601 43.1711 51.3621 43.2201 51.2859C43.3181 51.1444 43.3807 50.9784 43.4678 50.8287C43.6038 50.6029 43.7208 50.5892 43.9141 50.7661C44.4393 51.2506 44.9537 51.7459 45.4898 52.2167C46.837 53.4114 48.3338 54.3585 50.051 54.9436C50.2742 55.0198 50.4865 55.0226 50.7124 54.9627C51.8173 54.6579 52.9222 54.3503 54.0299 54.0591C54.8708 53.836 55.7172 53.6373 56.5581 53.4223C56.7377 53.3761 56.9119 53.3026 57.0915 53.2536C57.3011 53.1964 57.4535 53.0848 57.576 52.8998C57.6358 52.8127 57.7692 52.7202 57.8699 52.7202C58.7081 52.7229 59.4701 52.4208 60.2539 52.184C60.9452 51.9745 61.103 52.3119 61.7943 52.1024C61.9766 52.048 62.1889 52.0561 62.5182 51.9826C62.7767 51.969 62.9183 51.9826 63.1632 52.4997C63.3129 52.8154 63.2503 53.3461 63.1333 53.5611C62.9672 53.9367 62.7659 54.0374 62.5781 54.1027ZM68.9518 49.7973C68.5817 49.9796 67.983 50.7308 67.5802 50.9049C67.4006 50.9839 67.4087 51.2859 67.3135 51.2642C67.1747 51.2315 66.6494 51.5581 66.5378 51.6234C65.8439 52.0262 65.7622 52.1051 65.7296 51.9609C65.7187 51.0655 65.1063 50.4151 64.6001 50.3117C64.9675 50.0531 65.3486 49.8245 65.7377 49.5959C66.1269 49.3646 66.5215 49.1305 66.908 48.8611C67.0876 48.7359 67.2917 48.442 67.4332 48.3086C68.0646 47.7181 68.5654 47.7099 68.7395 47.6909C69.0634 47.6555 69.6159 47.7344 69.7819 48.0691C69.937 48.3794 69.7982 48.8638 69.6458 49.2503C69.6376 49.272 69.986 49.2884 68.9518 49.7973ZM71.3059 48.5073C71.3522 48.4175 71.7305 47.2663 71.3277 47.7888C71.295 48.7658 70.8324 48.9536 70.6718 49.0217C70.6527 49.0298 70.601 49.038 70.5357 49.0516C70.4976 49.0598 70.9957 48.6134 70.914 47.9195C70.9113 47.8977 70.7181 47.8405 70.7208 48.0691C70.7262 48.54 70.582 49.0189 70.2581 49.1659C70.1193 49.2285 70.084 49.2829 70.0731 49.2884C70.0486 49.1659 70.1819 49.0026 70.2282 48.8883C70.2935 48.7196 70.3234 48.2977 70.3044 48.2052C70.1683 47.5711 69.4499 47.2228 68.5055 47.5221C68.5545 47.5058 68.4347 47.4867 68.5762 47.3017C68.6905 47.152 69.3029 46.9833 69.3519 46.9506C69.1478 46.839 69.0335 46.771 68.9137 46.7111C67.9095 46.2049 66.9025 45.7069 65.901 45.1925C65.6561 45.0673 65.4275 44.8986 65.207 44.7326C65.09 44.6455 64.9893 44.6373 64.856 44.6673C64.1293 44.8333 63.4027 44.9939 62.676 45.149C62.3359 45.2225 62.3032 45.2197 62.2651 45.5382C62.1399 46.605 62.1045 47.6582 62.7169 48.6243C63.0761 49.1904 63.4081 49.7728 63.7538 50.3443C63.8191 50.4504 63.898 50.5457 63.9796 50.6546C64.2518 50.4668 64.6954 50.5865 64.9648 50.856C64.9458 50.8369 65.4874 51.6071 65.52 51.9881C65.5581 52.4208 64.9376 53.2726 64.8641 53.2046C64.8315 53.1719 64.992 52.7936 65.041 52.5079C65.0982 52.1731 65.0329 51.9418 64.905 52.1133C64.8151 52.2303 64.9403 52.3582 64.7199 53.1257C64.6056 53.6346 63.9334 53.9367 64.1593 53.5965C64.5185 53.0604 64.211 52.3936 64.1593 52.4344C63.9742 52.5923 64.3879 53.523 63.6014 54.0102C63.3945 54.1381 62.9482 54.2578 63.3428 53.7516C63.9034 53.0331 63.2639 51.9337 62.9999 51.8166C62.5699 51.6316 62.2134 52.0616 62.0964 51.9445C61.9821 51.8302 62.0964 51.5717 62.5128 51.4438C62.6407 51.403 62.9292 51.2996 62.9428 51.1853C62.9564 51.0709 62.725 50.8206 62.5862 50.611C62.159 49.9687 61.7263 49.3292 61.2935 48.6896C60.3846 47.3507 59.4701 46.0117 58.5612 44.6727C58.3815 44.406 58.1665 44.1828 57.8781 44.0304C57.4644 43.81 57.0453 43.5977 56.6534 43.3474C56.3595 43.1623 56.1173 43.1813 55.8152 43.3365C53.5318 44.5094 47.3432 47.8514 46.5403 48.1943C45.8953 48.4202 45.1387 48.4311 44.902 48.0474C44.755 47.8215 44.872 47.5548 45.0163 47.3697C45.185 47.1493 48.4916 44.5829 49.8497 43.4861C49.9721 43.3882 50.1354 43.3201 50.2905 43.282C51.3057 43.0235 52.3317 42.8058 53.3413 42.52C55.1185 42.0165 56.8439 41.3607 58.5367 40.6204C60.6268 39.7033 62.7795 38.3915 64.6328 37.0417C65.4656 36.4348 66.233 35.7598 66.8971 34.9706C67.5149 34.2358 68.0156 33.4357 68.2388 32.4886C68.3041 32.211 68.334 31.9307 68.2578 31.6449C68.1 32.2355 67.8632 32.788 67.5339 33.2996C67.0223 34.0916 66.3963 34.7855 65.7023 35.4224C64.9539 36.1082 64.1212 36.6797 63.2693 37.2349C61.6854 38.2663 60.0253 39.1481 58.2944 39.9047C55.9512 40.9252 53.7033 41.4858 51.2485 42.1962C50.9573 42.2805 50.6607 42.3513 50.3613 42.3839C50.0456 42.4166 49.9422 42.2669 50.0429 41.9621C50.1028 41.7825 50.179 41.6029 50.2878 41.4505C50.7995 40.7266 51.1614 40.3074 51.6921 39.5971C51.7737 39.4883 51.9316 39.4175 52.0677 39.3712C52.416 39.2569 52.7753 39.1807 53.1209 39.061C55.0368 38.397 56.8684 37.5397 58.6428 36.5599C59.3504 36.1681 60.028 35.7244 60.7166 35.2999C60.9234 35.172 60.918 35.1638 60.986 35.0223C59.5518 35.7381 58.0985 36.5055 56.6071 37.1941C55.1865 37.8499 53.7441 38.5548 52.1983 39.0011C51.9534 39.0719 52.1384 38.895 52.1656 38.8487C52.2772 38.6582 52.3235 38.5956 52.4296 38.4187C52.318 38.3153 52.2282 38.2282 52.1357 38.1466C50.6552 36.8593 49.1774 35.5693 47.6888 34.2929C46.9676 33.6752 46.2355 33.071 45.4871 32.4859C43.9603 31.2966 42.4145 30.1291 40.8851 28.9425C40.3462 28.5234 39.8264 28.0798 39.3093 27.6362C39.1977 27.5409 39.1052 27.4048 39.0508 27.2715C38.961 27.0538 39.0916 26.9259 39.3202 26.9885C39.4944 27.0374 39.6631 27.1082 39.8346 27.1708C39.6087 26.983 39.4236 26.7762 39.2494 26.5585C38.9882 26.2346 39.0099 25.9788 39.3229 25.6985C39.7175 25.3447 40.1747 25.2957 40.6265 25.5325C41.3668 25.9189 42.1043 26.3108 42.8091 26.7544C44.6053 27.892 46.377 29.065 48.1623 30.2189C49.4278 31.038 50.6879 31.8599 51.9615 32.6628C53.0637 33.3595 54.2258 33.7405 55.5158 33.7514C55.7852 33.7541 56.0601 33.5445 56.2506 33.3486C56.8058 32.7771 57.3664 32.2083 57.9434 31.6558C58.9667 30.6734 60.0199 29.7263 61.1656 28.8853C61.9086 28.3383 62.6488 27.7831 63.3836 27.2252C63.8572 26.8687 64.2436 26.4305 64.4559 25.8726C64.6029 25.4835 64.7117 25.078 64.7934 24.6697C65.1472 22.9389 65.9146 21.4502 67.2971 20.3181C68.3286 19.4744 69.4907 18.99 70.8433 18.9737C71.8012 18.9628 72.702 19.1805 73.5675 19.5561C73.8233 19.6676 74.041 19.6649 74.2887 19.5533C74.7731 19.3383 75.497 19.0172 75.995 18.8267C76.4278 18.6634 77.5599 18.2416 77.4129 18.4783C77.4538 18.413 75.8372 19.8119 75.4045 20.2718C73.8042 21.9864 75.9869 22.9144 76.0386 22.9743C75.5923 22.9443 74.5227 22.6885 74.1063 22.596C73.8614 22.5415 73.4913 22.3946 73.3171 22.1251C73.2844 22.4272 73.2354 22.6395 73.7689 22.8654C74.2506 23.0695 75.7447 23.2165 76.5666 23.3471C76.8578 23.3934 77.432 23.475 77.432 23.475C77.432 23.475 77.5354 23.6356 77.3204 23.6982C77.0292 23.7825 76.6672 23.8125 76.3706 23.8778C75.8181 24.003 75.4834 24.2915 75.2793 24.814C74.9255 25.7121 74.7486 26.6374 74.8792 27.6008C74.9473 28.1124 75.0452 28.6241 75.1732 29.1248C75.5215 30.491 75.6113 31.8654 75.4426 33.2642C75.1813 35.4196 74.4084 37.3764 73.1674 39.1481C71.9346 40.9062 70.3806 42.3159 68.4783 43.3256C68.2551 43.4453 68.0319 43.5651 67.8224 43.7066C67.4877 43.9352 67.4468 44.2291 67.6945 44.5502C67.7707 44.6482 67.8632 44.7435 67.9694 44.8088C68.7014 45.2823 69.439 45.7504 70.1792 46.2131C70.2527 46.2594 70.3888 46.2811 70.4568 46.243C70.8324 46.1505 70.9031 46.0525 71.1589 46.2403C71.4501 46.4526 71.9754 46.9125 72.0244 47.2445C72.0217 47.4378 71.9155 47.68 71.8638 47.8405C71.6298 48.5182 71.1208 48.8774 71.3059 48.5073ZM75.6031 44.9177C76.2373 44.953 76.9067 45.4756 77.1353 45.6171C77.364 45.7586 76.8686 45.96 76.8686 45.96C76.8686 45.96 76.1148 46.3628 75.6739 46.6295C75.233 46.8935 74.2451 46.9833 74.3513 46.9996C74.4574 47.0159 74.969 47.2473 75.1813 47.5983C75.3936 47.9521 76.2754 48.5672 76.2754 48.5672L75.6222 48.7087C75.6222 48.7087 75.2167 48.4801 74.8112 48.0038C74.4057 47.5276 73.875 47.5983 73.7008 47.6691C73.5239 47.7398 73.3824 47.5629 72.6966 47.9875C72.0081 48.412 71.9727 48.3222 71.9727 48.3222C71.9727 48.3222 72.0081 48.2352 72.2013 47.8623C72.3945 47.4922 72.272 47.1384 72.1659 46.8227C72.0598 46.5043 71.5481 46.1532 71.5481 46.1532C71.1236 45.9409 71.9182 45.8538 72.1115 45.7287C72.3047 45.6062 73.064 45.5354 73.3987 45.5518C73.7335 45.5681 73.9975 45.3286 74.3866 45.1272C75.1106 44.7571 74.8928 44.7163 75.1568 44.6618C75.4208 44.6074 74.9663 44.8823 75.6031 44.9177ZM82.9593 58.438C82.8913 59.3198 82.5429 60.0873 81.9878 60.7704C81.7864 61.018 81.6204 61.2956 81.4407 61.5623C81.3346 61.7229 81.2557 61.9025 81.1332 62.0495C80.9373 62.2835 80.7059 62.474 80.3658 62.4277C80.2378 62.4087 80.1099 62.3842 79.982 62.3624C79.5058 62.2808 79.0268 62.21 78.556 62.112C77.8021 61.9542 77.1734 61.5514 76.5584 61.1051C75.8154 60.5635 75.3038 59.8532 74.8765 59.0613C74.6343 58.6149 74.4057 58.1659 74.2778 57.6706C74.2152 57.4284 74.256 57.2161 74.4193 57.0283C75.5542 55.7329 76.9367 54.8321 78.6322 54.4674C79.7997 54.2605 81.1387 54.5762 81.4326 54.6851C81.7347 54.7967 82.0259 54.9327 82.3143 55.077C82.5593 55.1994 82.7226 55.409 82.7525 55.6812C82.8287 56.3642 82.8913 57.0501 82.9485 57.7359C82.9729 57.9672 82.9784 58.2067 82.9593 58.438ZM82.8097 53.9775C82.347 54.5626 82.3905 54.4048 81.8544 54.1952C81.6449 54.1136 80.3685 53.5774 79.6418 53.6237C77.383 53.621 75.8807 54.2986 74.4438 55.7927C74.2587 55.9832 74.1118 56.2118 73.943 56.416C73.6682 56.7425 73.4831 56.767 73.0994 56.5847C72.4898 56.2962 72.0788 55.79 71.6869 55.2757C71.4284 54.9382 71.4447 54.5191 71.5073 54.119C71.823 52.1813 72.7946 50.6981 74.5227 49.7238C75.9379 48.9264 77.4483 48.7169 79.0404 48.9237C79.9575 49.0434 80.823 49.2965 81.5932 49.8136C82.5647 50.4668 83.158 51.188 83.1689 52.4018C83.1362 53.308 82.9838 53.7571 82.8097 53.9775ZM93.9133 35.7707C93.731 36.1925 93.4371 36.5273 93.0996 36.892C92.5553 37.4771 91.8668 37.9751 90.9306 38.4568C90.4652 38.6963 89.9862 38.944 89.6624 39.4039C89.5971 39.4992 89.5753 39.6244 89.6079 39.7495C89.6406 39.8747 89.7168 39.9754 89.8202 40.0271C89.861 40.0489 89.9046 40.068 89.9454 40.087C90.1141 40.1686 90.291 40.253 90.419 40.3728C90.7619 40.6939 90.8653 41.0803 90.721 41.4886C90.6938 41.5648 90.6476 41.6383 90.6013 41.7145C90.5523 41.7934 90.5006 41.875 90.4679 41.9676C90.4026 42.1553 90.2529 42.2588 90.0951 42.3676C90.0597 42.3921 90.0216 42.4193 89.9862 42.4438C89.6569 42.6888 89.2514 42.8548 88.7806 42.9391C88.0513 43.067 87.2675 43.0072 86.3149 42.7513C86.1952 42.7187 86.0727 42.6833 85.953 42.6507C85.6237 42.5581 85.2862 42.4601 84.9433 42.3975C84.5405 42.3241 84.018 42.2751 83.5309 42.5391C83.1716 42.735 82.9947 43.0915 83.0709 43.4725C83.09 43.5651 83.3077 43.8998 83.7567 44.5666C83.8547 44.7135 83.9418 44.8415 83.9962 44.9258C84.3827 45.5218 84.2602 46.1614 83.6805 46.556C82.7117 47.2146 81.6394 47.3969 80.4909 47.1003C79.7072 46.8962 78.9914 46.4635 78.3573 46.0797C78.0933 45.9192 77.8348 45.7341 77.5871 45.5545C77.1054 45.2061 76.6101 44.8496 76.0223 44.6455C75.9433 44.6183 75.8644 44.5856 75.7882 44.553C75.6358 44.4904 75.478 44.4251 75.3119 44.3978C74.9337 44.3353 74.5472 44.3244 74.2179 44.3216C74.2097 44.3216 74.2016 44.3216 74.1934 44.3216C73.9811 44.3216 73.826 44.3271 73.6001 44.3842C73.1538 44.4958 72.8898 44.8659 72.5415 45.2905C72.4816 45.3613 72.3836 45.3368 72.3673 45.2878C72.3646 45.2578 72.3646 45.2279 72.3727 45.2143C72.4272 45.1054 72.5034 45.002 72.5904 44.8904C73.1048 44.2264 73.7634 43.6685 74.5989 43.1895C74.7595 43.097 74.9282 43.0153 75.0915 42.9364C75.2112 42.8793 75.3283 42.8221 75.4453 42.7595C75.5324 42.7132 75.6167 42.6615 75.7011 42.6098C75.8154 42.5418 75.9297 42.471 76.0495 42.4166C76.4822 42.2179 76.9176 42.1934 77.3395 42.3458C77.8919 42.5445 78.3573 42.9174 78.7193 43.4453C79.4677 44.5394 80.4692 45.2932 81.7809 45.7559C81.8599 45.7831 81.9388 45.8076 82.0204 45.8321L82.1211 45.862C82.3388 45.8947 82.3388 45.7096 82.1864 45.6824L82.113 45.6525C82.0585 45.6307 82.0041 45.6062 81.9497 45.5817C81.8463 45.5327 81.7428 45.4892 81.6394 45.4429C81.4081 45.3422 81.1686 45.2361 80.9536 45.1082C80.1916 44.6564 79.5384 44.0114 79.0213 43.195C78.5941 42.5255 78.028 42.0873 77.3367 41.8941C77.3422 41.8913 77.3503 41.8886 77.3558 41.8886C77.5844 41.8151 77.8103 41.7444 78.0389 41.6736C78.526 41.5212 79.0322 41.3634 79.5221 41.1892C80.7958 40.732 81.8571 40.4598 82.8614 40.3319C83.3567 40.2693 83.8683 40.204 84.3772 40.2149C84.9977 40.2312 85.6155 40.4598 86.3204 40.9334C86.9627 41.3661 87.5913 41.6029 88.2418 41.6546C88.6119 41.6845 88.9874 41.6764 89.3521 41.6655C89.4746 41.6627 89.5998 41.66 89.7223 41.6573C89.7794 41.6573 89.8257 41.6219 89.8638 41.592C89.8774 41.5811 89.891 41.5702 89.9046 41.5621C89.9318 41.5457 89.9454 41.5131 89.9373 41.4831C89.9291 41.4532 89.9019 41.4314 89.8692 41.4287C89.6923 41.4233 89.5181 41.4205 89.3467 41.4178C88.9657 41.4124 88.6092 41.4069 88.2499 41.3688C87.4879 41.2872 86.832 40.9116 86.2387 40.517C85.9992 40.3591 85.7353 40.2367 85.4794 40.1169C85.3651 40.0652 85.2508 40.0108 85.1393 39.9564C85.1284 39.9509 85.1175 39.9455 85.1039 39.94C85.1284 39.9292 85.1501 39.921 85.1746 39.9128C85.2644 39.8802 85.357 39.8448 85.4468 39.8094C85.6563 39.7278 85.8713 39.6461 86.0891 39.5808C87.0742 39.2923 87.8635 38.6827 88.4431 38.1792C88.8895 37.7928 89.3494 37.3927 89.9128 37.175C90.3101 37.0199 90.7238 36.8675 91.1755 36.7124C92.0546 36.4075 92.7839 35.983 93.3364 35.3543C93.565 35.0931 93.5106 35.0359 93.4915 35.0114C93.4725 34.9869 93.3772 34.9243 93.1649 35.1475C92.5608 35.7816 91.8586 36.1735 91.0857 36.413C90.3482 36.6416 89.7603 36.8729 89.2487 37.1423L89.4038 36.911C89.9699 36.0674 90.2802 35.1665 90.3264 34.2331C90.4244 32.2899 90.8517 30.7904 91.6763 29.5167C91.6953 29.4895 91.7008 29.4568 91.7062 29.4187C91.7089 29.3997 91.7144 29.3779 91.7198 29.3507C91.7253 29.3208 91.7117 29.2881 91.6844 29.2718C91.6572 29.2555 91.6219 29.2609 91.6001 29.2827L91.5402 29.3398C91.5103 29.367 91.4912 29.3861 91.4749 29.4079C91.1837 29.7671 90.9442 30.1916 90.7591 30.6679C90.3727 31.6721 90.1332 32.7662 90.0461 33.9174C89.9427 35.2781 89.4229 36.4756 88.4568 37.5751C88.4513 37.5832 88.4431 37.5887 88.435 37.5968C88.6282 36.6198 88.4622 35.7299 87.9233 34.8753C87.4389 34.1052 87.1613 33.2942 87.1994 32.4614C87.2049 32.3552 87.1314 32.2899 87.1015 32.2872C87.1015 32.2872 86.8892 32.2437 86.93 32.6111C86.9382 32.69 86.9354 32.8424 86.9409 32.9213C86.9572 33.169 86.9817 33.3513 87.0579 33.5881C87.2321 34.1269 87.4525 34.6876 87.7301 35.3026C87.9342 35.7544 88.1519 36.2878 88.1656 36.8675C88.1819 37.6458 87.8934 38.2037 87.2811 38.5793L87.2021 38.6283C87.0497 38.7208 86.8919 38.8188 86.734 38.9032C85.7489 39.4175 84.8317 39.7196 83.9282 39.8312C83.4029 39.8965 82.8695 39.9809 82.3579 40.0652C82.1157 40.1061 81.8735 40.1442 81.6285 40.1823C81.6258 40.1823 81.6204 40.1822 81.6176 40.185C81.6231 40.1768 81.6258 40.1714 81.6312 40.1632C82.0749 39.5128 82.2817 38.7752 82.2463 37.9697C82.2137 37.2675 82.2164 36.5137 82.4368 35.7707C82.6709 34.9815 82.9974 34.4154 83.4737 33.9963C83.656 33.8357 83.5445 33.7459 83.5445 33.7459C83.5227 33.716 83.3458 33.7024 83.1471 33.9065C82.9566 34.1052 82.7879 34.312 82.6518 34.5379C82.1892 35.3026 81.9551 36.1817 81.898 37.39C81.8925 37.5261 81.8871 37.6649 81.8843 37.8037C81.8735 38.1575 81.8653 38.5249 81.8027 38.8732C81.6476 39.7441 81.1822 40.2911 80.3794 40.5415C79.3452 40.8626 78.3056 41.2246 77.2986 41.5729C76.8714 41.7199 76.4468 41.8696 76.0195 42.0138C76.0304 41.9866 76.044 41.9594 76.0549 41.9322C76.1229 41.777 76.1937 41.6138 76.2427 41.4477C76.3053 41.2382 76.3352 41.015 76.3624 40.8028L76.3706 40.7429C76.4577 40.1088 76.5802 39.5944 76.8986 39.1454C77.0129 38.9848 77.1381 38.8269 77.2605 38.6718C77.3367 38.5766 77.4102 38.484 77.4837 38.3861C77.5191 38.3371 77.549 38.2854 77.5789 38.2364C77.5926 38.2146 77.6034 38.1901 77.617 38.1684C77.6279 38.1493 77.6307 38.1221 77.6198 38.103C77.6089 38.084 77.5898 38.0677 77.5681 38.0622C77.5245 38.054 77.4592 38.0486 77.4102 38.0976C76.9965 38.4868 76.4931 39.0256 76.2726 39.7659C76.1529 40.1714 76.0658 40.5905 75.9814 40.996L75.9406 41.1974C75.8535 41.6246 75.6467 41.9648 75.3283 42.2152C74.92 42.5336 74.5799 42.7786 74.2614 42.9854C73.7144 43.3392 73.015 43.8318 72.468 44.5094C72.4299 44.5557 72.3891 44.602 72.3482 44.6509C72.2475 44.7571 72.1006 44.6128 72.3047 44.3516L72.7918 43.6848C73.1456 43.1079 73.5266 42.6044 73.8859 42.0301C73.9321 41.9567 73.9839 41.8886 74.041 41.8179C74.1063 41.7362 74.1716 41.6491 74.2261 41.5566C74.2832 41.4559 74.3295 41.3471 74.3757 41.2436C74.4166 41.1511 74.4574 41.0531 74.5064 40.966L74.6506 40.7048C75.1078 39.8829 75.5787 39.0338 76.0576 38.2064C76.2781 37.8282 76.6264 37.5424 77.1 37.3573C77.6361 37.1451 78.2566 37.2675 78.6077 37.6485C78.722 37.7765 78.8417 37.8935 78.956 37.9996C79.2064 38.2255 79.5194 38.2609 79.8187 38.1003C80.1181 37.9397 80.3195 37.6812 80.3984 37.3573C80.4719 37.0634 80.5209 36.7586 80.5726 36.4647L80.6107 36.2443C80.6352 36.1 80.6542 35.9531 80.6733 35.8061C80.7087 35.5231 80.7468 35.2319 80.8311 34.9597C81.0162 34.3474 81.4135 33.8221 82.0041 33.3921C82.5185 33.022 83.0165 32.8451 83.5553 32.8533C83.8928 32.8587 84.1486 32.9948 84.3391 33.2697C84.6303 33.6915 84.6684 34.146 84.4534 34.6222C84.3691 34.81 84.2684 34.9951 84.1731 35.1747C84.1078 35.2945 84.0452 35.4142 83.9853 35.5339C83.8302 35.8442 83.8275 36.1599 83.9799 36.4021C84.1296 36.6389 84.4181 36.7749 84.7528 36.7613C85.2536 36.7505 85.7135 36.5599 86.2006 36.1653C86.4401 35.9694 86.5517 35.7326 86.5272 35.4605C86.5054 35.1883 86.4782 34.8481 86.3911 34.5379C86.3149 34.263 86.2034 33.9963 86.0972 33.7378C86.0646 33.6616 86.0319 33.5826 86.002 33.5064C85.8577 33.1445 85.8223 32.7961 85.8985 32.4423C85.9911 32.0069 86.3558 31.6858 86.7885 31.6667C86.9191 31.6613 87.0606 31.6667 87.2049 31.683C87.4825 31.7157 87.722 31.8654 87.8825 32.1021C88.0322 32.3226 88.22 32.5104 88.4704 32.6927C88.5711 32.7662 88.6826 32.7825 88.7779 32.7417C88.8786 32.6954 88.9439 32.5947 88.9602 32.4587C88.9766 32.309 88.963 32.1538 88.9493 32.0069C88.9385 31.8926 88.9221 31.781 88.9085 31.6667C88.8867 31.498 88.8623 31.3265 88.8541 31.1551C88.8242 30.5482 88.8432 29.7589 89.2623 29.0459C89.6243 28.4308 90.0815 28.0417 90.6639 27.8539C91.4205 27.6117 92.1308 27.7777 92.8356 28.3601C93.0915 28.5724 93.2411 28.8282 93.2738 29.1276C93.3636 29.9032 93.1922 30.5754 92.7649 31.1251C92.6206 31.3102 92.4628 31.4871 92.3077 31.6585C92.226 31.7511 92.1417 31.8436 92.06 31.9361C91.6545 32.4042 91.4069 32.8723 91.3034 33.3676C91.2626 33.5663 91.2953 33.7459 91.3987 33.8766C91.4967 34.0017 91.6572 34.0725 91.8423 34.0752C92.011 34.0752 92.177 34.0507 92.3376 34.0235C92.392 34.0154 92.4465 34.0045 92.5036 33.9963C92.5771 33.9854 92.6533 33.9718 92.7268 33.9555C92.852 33.931 92.9717 33.9092 93.0942 33.901C93.497 33.8793 93.7718 34.0507 93.9406 34.4127C94.1392 34.8264 94.1283 35.2727 93.9133 35.7707Z" fill="#367A3A"/>
<path d="M81.3972 57.9373C81.3074 58.0434 81.4407 58.2992 81.2067 58.9905C81.1713 59.1483 81.3428 59.1538 81.3727 59.064C81.5578 58.8299 81.9007 57.4909 81.3972 57.9373Z" fill="#367A3A"/>
<path d="M100.483 104.714H27V105.278H100.483V104.714Z" fill="#005229"/>
<path d="M72.0026 47.2445C71.9536 46.9098 71.4284 46.4498 71.1372 46.2403C70.8814 46.0552 70.8106 46.1505 70.435 46.243C70.367 46.2811 70.2309 46.2594 70.1574 46.2131C69.4172 45.7532 68.6824 45.2823 67.9476 44.8088C67.8442 44.7408 67.7489 44.6482 67.6727 44.5502C67.4251 44.2291 67.4659 43.9352 67.8006 43.7066C68.0102 43.5651 68.2333 43.4426 68.4565 43.3256C70.3588 42.3132 71.9128 40.9062 73.1456 39.1481C74.3894 37.3764 75.1595 35.4196 75.4208 33.2642C75.5895 31.8654 75.4997 30.4883 75.1514 29.1248C75.0235 28.6241 74.9255 28.1124 74.8575 27.6008C74.7268 26.6374 74.9037 25.7121 75.2575 24.814C75.4616 24.2942 75.7964 24.003 76.3488 23.8778C76.6455 23.8098 77.0074 23.7825 77.2986 23.6982C77.5136 23.6356 77.4102 23.475 77.4102 23.475C77.4102 23.475 76.836 23.3934 76.5448 23.3471C75.7202 23.2165 74.2261 23.0668 73.7471 22.8654C73.2137 22.6395 73.2627 22.4272 73.2953 22.1251C73.4722 22.3946 73.8396 22.5415 74.0846 22.596C74.5009 22.6885 75.5705 22.947 76.0168 22.9743C75.9651 22.9144 73.7825 21.9864 75.3827 20.2718C75.8127 19.8092 77.432 18.413 77.3912 18.4783C77.5408 18.2416 76.406 18.6607 75.9733 18.8267C75.478 19.0145 74.754 19.3383 74.2669 19.5533C74.0165 19.6649 73.8015 19.6676 73.5457 19.5561C72.6803 19.1778 71.7794 18.96 70.8215 18.9737C69.4716 18.99 68.3068 19.4744 67.2754 20.3181C65.8929 21.4529 65.1254 22.9416 64.7716 24.6697C64.6872 25.078 64.5811 25.4835 64.4341 25.8726C64.2219 26.4305 63.8354 26.866 63.3619 27.2252C62.6243 27.7831 61.8868 28.3383 61.1439 28.8853C60.0008 29.729 58.9449 30.6761 57.9216 31.6558C57.3474 32.2083 56.7867 32.7743 56.2288 33.3486C56.0383 33.5445 55.7635 33.7541 55.494 33.7514C54.204 33.7405 53.042 33.3595 51.9398 32.6628C50.6661 31.8599 49.4033 31.038 48.1406 30.2189C46.3553 29.065 44.5808 27.892 42.7874 26.7544C42.0852 26.3081 41.345 25.9162 40.6047 25.5325C40.1503 25.2957 39.6958 25.3447 39.3012 25.6985C38.9882 25.9788 38.9664 26.2346 39.2277 26.5585C39.4018 26.7762 39.5869 26.983 39.8128 27.1708C39.6413 27.1082 39.4726 27.0374 39.2984 26.9885C39.0671 26.9259 38.9392 27.0538 39.029 27.2715C39.0834 27.4076 39.1787 27.5409 39.2875 27.6362C39.8046 28.0798 40.3244 28.5261 40.8633 28.9425C42.3928 30.1291 43.9386 31.2966 45.4653 32.4859C46.2137 33.0683 46.9458 33.6752 47.667 34.2929C49.1557 35.5693 50.6334 36.862 52.1139 38.1466C52.2092 38.2282 52.299 38.318 52.4079 38.4187C52.3044 38.5956 52.2555 38.6582 52.1439 38.8487C52.1167 38.895 51.9343 39.0719 52.1765 39.0011C53.7223 38.5521 55.1647 37.8499 56.5854 37.1941C58.0767 36.5055 59.53 35.7353 60.9642 35.0223C60.8962 35.1638 60.9016 35.1747 60.6948 35.2999C60.0063 35.7244 59.3259 36.1681 58.621 36.5599C56.8493 37.5424 55.0178 38.397 53.0991 39.061C52.7535 39.1807 52.3915 39.2542 52.0459 39.3712C51.9098 39.4175 51.752 39.4883 51.6703 39.5971C51.1396 40.3047 50.7777 40.7266 50.266 41.4505C50.1572 41.6029 50.081 41.7852 50.0211 41.9621C49.9204 42.2669 50.0266 42.4166 50.3395 42.3839C50.6389 42.3513 50.9383 42.2805 51.2267 42.1962C53.6842 41.4858 55.9295 40.9252 58.2727 39.9047C60.0035 39.1508 61.6637 38.2663 63.2476 37.2349C64.0967 36.6824 64.9322 36.1109 65.6806 35.4224C66.3746 34.7855 66.9978 34.0916 67.5121 33.2996C67.8414 32.788 68.0782 32.2355 68.2361 31.6449C68.3123 31.9307 68.2823 32.2137 68.217 32.4886C67.9911 33.4357 67.4904 34.2358 66.8753 34.9706C66.2113 35.7598 65.4438 36.4348 64.611 37.0417C62.7604 38.3915 60.605 39.7033 58.5149 40.6204C56.8221 41.3634 55.0967 42.0165 53.3196 42.52C52.3126 42.8058 51.2866 43.0235 50.2688 43.282C50.1136 43.3201 49.9503 43.3882 49.8279 43.4861C48.4699 44.5829 45.1632 47.1493 44.9945 47.3697C44.853 47.5548 44.736 47.8215 44.8802 48.0474C45.117 48.4311 45.8763 48.4202 46.5186 48.1943C47.3214 47.8514 53.5101 44.5067 55.7934 43.3365C56.0955 43.1813 56.3404 43.1623 56.6316 43.3474C57.0262 43.5977 57.4453 43.81 57.8563 44.0304C58.1448 44.1828 58.357 44.406 58.5394 44.6727C59.4484 46.0144 60.3628 47.3507 61.2718 48.6896C61.7045 49.3292 62.1372 49.9687 62.5645 50.611C62.7033 50.8206 62.9346 51.0709 62.921 51.1853C62.9074 51.2996 62.6189 51.403 62.491 51.4438C62.0746 51.5717 61.9603 51.8302 62.0746 51.9445C62.1916 52.0616 62.5481 51.6289 62.9781 51.8166C63.2448 51.9309 63.8844 53.0331 63.321 53.7516C62.9264 54.2578 63.37 54.1381 63.5796 54.0102C64.3661 53.5203 63.9524 52.5923 64.1375 52.4344C64.1892 52.3909 64.4967 53.0576 64.1375 53.5965C63.9116 53.9367 64.5838 53.6346 64.6981 53.1257C64.9186 52.3582 64.7934 52.233 64.8832 52.1133C65.0111 51.9418 65.0764 52.1731 65.0193 52.5079C64.9703 52.7936 64.8097 53.1747 64.8424 53.2046C64.9158 53.2726 65.5363 52.4181 65.4982 51.9881C65.4656 51.6071 64.9213 50.8369 64.9431 50.856C64.6709 50.5892 64.23 50.4668 63.9579 50.6546C63.879 50.5457 63.7973 50.4504 63.732 50.3443C63.3836 49.7701 63.0543 49.1877 62.6951 48.6243C62.0828 47.6609 62.1181 46.605 62.2433 45.5382C62.2814 45.217 62.3141 45.2225 62.6543 45.149C63.3809 44.9939 64.1076 44.8306 64.8342 44.6673C64.9675 44.6373 65.0682 44.6455 65.1853 44.7326C65.4057 44.8986 65.6343 45.0673 65.8792 45.1925C66.878 45.7069 67.8877 46.2049 68.8919 46.7111C69.0117 46.771 69.1287 46.839 69.3301 46.9506C69.2811 46.986 68.6688 47.152 68.5545 47.3017C68.413 47.4867 68.5327 47.5058 68.4837 47.5221C69.4281 47.2228 70.1466 47.5711 70.2826 48.2052C70.3017 48.2977 70.2745 48.7223 70.2064 48.8883C70.1602 49.0053 70.0295 49.1659 70.0513 49.2884C70.0622 49.2829 70.0976 49.2258 70.2364 49.1659C70.5602 49.0217 70.7045 48.54 70.699 48.0691C70.6963 47.8405 70.8895 47.8977 70.8922 47.9195C70.9739 48.6134 70.4786 49.057 70.514 49.0516C70.5793 49.038 70.631 49.0298 70.65 49.0217C70.8106 48.9536 71.2732 48.7658 71.3059 47.7888C71.7087 47.2663 71.3304 48.4175 71.2841 48.5073C71.0991 48.8801 71.6053 48.5182 71.8203 47.8433C71.8938 47.68 71.9999 47.4378 72.0026 47.2445ZM70.1928 20.9549C70.68 20.9604 71.1018 21.4012 71.0882 21.8938C71.0746 22.3619 70.6745 22.7239 70.1819 22.7184C69.6975 22.713 69.3056 22.3048 69.3111 21.8122C69.3165 21.3468 69.7247 20.9495 70.1928 20.9549ZM59.0374 34.3474C57.8862 35.3951 54.8436 36.8784 53.3522 37.4172C53.3304 37.39 53.3087 37.3655 53.2869 37.3383C53.2978 37.2049 53.4638 37.0852 53.638 36.9682C53.804 36.8539 54.1251 36.7396 54.3047 36.6498C55.8233 35.8986 57.3011 35.2346 58.8714 34.1405C59.1299 33.9582 59.1735 34.2657 59.0374 34.3474ZM62.4338 36.0701C60.2757 37.4825 57.9896 38.6528 55.6002 39.6189C54.1904 40.1877 52.7725 40.7266 51.3029 41.1239C51.1614 41.162 51.0117 41.1756 50.8675 41.2001C50.8566 41.1647 50.8484 41.1293 50.8376 41.094C53.0011 40.2911 55.1566 39.4638 57.2494 38.4922C59.3586 37.5125 61.4024 36.4075 63.4054 35.2291C63.4245 35.2645 63.4462 35.2999 63.4653 35.3353C63.1224 35.5802 62.7876 35.8387 62.4338 36.0701Z" fill="white"/>
<path d="M93.1023 33.8983C92.9799 33.9065 92.8629 33.9283 92.735 33.9527C92.6615 33.9664 92.5853 33.9827 92.5118 33.9936C92.4574 34.0017 92.4029 34.0099 92.3458 34.0208C92.1852 34.048 92.0192 34.0725 91.8505 34.0725C91.6627 34.0698 91.5048 33.999 91.4069 33.8738C91.3034 33.7432 91.2681 33.5636 91.3116 33.3649C91.415 32.8696 91.6627 32.4015 92.0682 31.9334C92.1498 31.8409 92.2315 31.7483 92.3158 31.6558C92.471 31.4844 92.6288 31.3075 92.7731 31.1224C93.2003 30.5699 93.3718 29.8977 93.282 29.1248C93.2466 28.8282 93.0996 28.5696 92.8438 28.3574C92.1389 27.775 91.4286 27.6117 90.6721 27.8512C90.0897 28.0362 89.6324 28.4254 89.2705 29.0432C88.8514 29.7562 88.8323 30.5454 88.8623 31.1523C88.8704 31.3211 88.8922 31.4952 88.9167 31.664C88.933 31.7783 88.9466 31.8899 88.9575 32.0042C88.9711 32.1511 88.9847 32.3035 88.9684 32.4559C88.9548 32.5893 88.8895 32.6927 88.7861 32.739C88.6908 32.7825 88.5792 32.7635 88.4785 32.69C88.2254 32.5049 88.0404 32.3171 87.8907 32.0994C87.7301 31.8626 87.4879 31.7157 87.213 31.6803C87.0688 31.6612 86.9273 31.6558 86.7967 31.664C86.3639 31.6857 85.9993 32.0042 85.9067 32.4396C85.8305 32.7961 85.8659 33.1445 86.0101 33.5037C86.0401 33.5799 86.0727 33.6588 86.1054 33.735C86.2115 33.9936 86.3231 34.2603 86.3993 34.5352C86.4864 34.8454 86.5136 35.1856 86.5354 35.4577C86.5572 35.7299 86.4483 35.9667 86.2088 36.1626C85.7217 36.5572 85.2617 36.7477 84.761 36.7586C84.429 36.7695 84.1378 36.6361 83.9881 36.3994C83.8357 36.1599 83.8384 35.8442 83.9935 35.5312C84.0534 35.4115 84.1187 35.2917 84.1813 35.172C84.2765 34.9924 84.3772 34.8073 84.4616 34.6195C84.6766 34.146 84.6385 33.6915 84.3473 33.2669C84.1568 32.9921 83.901 32.856 83.5635 32.8505C83.0247 32.8424 82.5266 33.0193 82.0123 33.3894C81.419 33.8194 81.0244 34.3446 80.8393 34.957C80.7577 35.2264 80.7196 35.5203 80.6815 35.8034C80.6624 35.9503 80.6434 36.0973 80.6189 36.2415L80.5808 36.462C80.5318 36.7559 80.4801 37.0607 80.4066 37.3546C80.3249 37.6785 80.1263 37.937 79.8269 38.0976C79.5303 38.2582 79.2146 38.2228 78.9642 37.9969C78.8472 37.8908 78.7301 37.7737 78.6158 37.6458C78.2648 37.2621 77.6443 37.1423 77.1081 37.3546C76.6373 37.5397 76.2863 37.8254 76.0658 38.2037C75.5841 39.0311 75.1133 39.8802 74.6588 40.7021L74.5146 40.9633C74.4656 41.0531 74.4247 41.1484 74.3839 41.2409C74.3404 41.3443 74.2941 41.4532 74.2342 41.5539C74.1798 41.6491 74.1145 41.7335 74.0492 41.8151C73.992 41.8859 73.9403 41.9539 73.8941 42.0274C73.5375 42.6017 73.1565 43.1051 72.8 43.6821L72.3129 44.3489C72.1088 44.6101 72.2557 44.7544 72.3564 44.6482C72.3972 44.5992 72.4381 44.553 72.4762 44.5067C73.0205 43.829 73.7199 43.3337 74.2696 42.9827C74.588 42.7785 74.9282 42.5336 75.3364 42.2125C75.6549 41.9648 75.8617 41.6219 75.9488 41.1946L75.9896 40.9932C76.074 40.5877 76.1583 40.1686 76.2808 39.7631C76.4985 39.0229 77.002 38.4813 77.4184 38.0949C77.4701 38.0486 77.5327 38.0513 77.5762 38.0595C77.6007 38.0649 77.6198 38.0785 77.6279 38.1003C77.6361 38.1221 77.6361 38.1466 77.6252 38.1656C77.6116 38.1874 77.598 38.2092 77.5871 38.2337C77.5599 38.2854 77.53 38.3371 77.4919 38.3833C77.4184 38.4786 77.3449 38.5738 77.2687 38.6691C77.1462 38.8215 77.0211 38.9793 76.9067 39.1426C76.5883 39.5917 76.4659 40.106 76.3788 40.7402L76.3706 40.8C76.3407 41.015 76.3107 41.2355 76.2509 41.445C76.2019 41.611 76.1311 41.7716 76.0631 41.9294C76.0522 41.9567 76.0386 41.9839 76.0277 42.0111C76.455 41.8669 76.8795 41.7172 77.3068 41.5702C78.3138 41.2219 79.3534 40.8599 80.3875 40.5388C81.1904 40.2884 81.6585 39.7441 81.8109 38.8705C81.8735 38.5221 81.8816 38.1547 81.8925 37.8009C81.8952 37.6621 81.9007 37.5261 81.9061 37.3873C81.9633 36.1789 82.1973 35.2972 82.66 34.5352C82.7961 34.312 82.9648 34.1024 83.1553 33.9038C83.3512 33.6997 83.5309 33.7133 83.5526 33.7432C83.5526 33.7432 83.6615 33.833 83.4819 33.9936C83.0083 34.4127 82.679 34.9788 82.445 35.768C82.2245 36.5082 82.2245 37.2621 82.2545 37.9669C82.2899 38.7698 82.083 39.51 81.6394 40.1605C81.634 40.1686 81.6313 40.1741 81.6258 40.1822C81.6285 40.1822 81.634 40.1822 81.6367 40.1795C81.8789 40.1414 82.1211 40.1033 82.3661 40.0625C82.8804 39.9781 83.4111 39.891 83.9364 39.8284C84.8399 39.7196 85.757 39.4148 86.7422 38.9004C86.9028 38.8161 87.0606 38.7208 87.2103 38.6256L87.2892 38.5766C87.9016 38.201 88.1901 37.6404 88.1737 36.8647C88.1601 36.2851 87.9424 35.7517 87.7383 35.2999C87.4607 34.6848 87.243 34.1242 87.0661 33.5853C86.9899 33.3486 86.9654 33.1662 86.9491 32.9186C86.9436 32.8397 86.9463 32.6873 86.9382 32.6083C86.8973 32.2409 87.1096 32.2845 87.1096 32.2845C87.1396 32.2872 87.2103 32.3525 87.2076 32.4587C87.1695 33.2914 87.4471 34.1052 87.9315 34.8726C88.4676 35.7244 88.6364 36.6171 88.4432 37.5941C88.4513 37.5859 88.4568 37.5805 88.4649 37.5723C89.4311 36.4701 89.9536 35.2754 90.0543 33.9147C90.1414 32.7635 90.3809 31.6694 90.7673 30.6652C90.9497 30.1889 91.1919 29.7644 91.4831 29.4051C91.4994 29.3861 91.5184 29.367 91.5484 29.3371L91.6083 29.2799C91.63 29.2582 91.6654 29.2527 91.6926 29.2691C91.7198 29.2854 91.7362 29.3153 91.728 29.348C91.7226 29.3752 91.7171 29.3997 91.7144 29.416C91.709 29.4541 91.7035 29.4841 91.6845 29.514C90.8626 30.7877 90.4326 32.2872 90.3346 34.2303C90.2883 35.1638 89.9781 36.0646 89.412 36.9083L89.2569 37.1396C89.7685 36.8702 90.3564 36.6361 91.0939 36.4103C91.8668 36.1708 92.5689 35.7789 93.1731 35.1448C93.3881 34.9216 93.4806 34.9842 93.4997 35.0087C93.5187 35.0332 93.5732 35.0903 93.3446 35.3516C92.7921 35.9803 92.0627 36.4021 91.1837 36.7096C90.7319 36.8675 90.3183 37.0199 89.9209 37.1723C89.3576 37.3927 88.8976 37.7901 88.4513 38.1765C87.8716 38.68 87.0824 39.2896 86.0972 39.5781C85.8795 39.6407 85.6645 39.725 85.455 39.8067C85.3652 39.8421 85.2726 39.8774 85.1828 39.9101C85.161 39.9183 85.1365 39.9264 85.112 39.9373C85.1257 39.9428 85.1365 39.9482 85.1474 39.9536C85.259 40.0081 85.3733 40.0625 85.4876 40.1142C85.7434 40.234 86.0074 40.3564 86.2469 40.5143C86.8402 40.9089 87.4934 41.2845 88.2581 41.3661C88.6173 41.4042 88.9738 41.4096 89.3549 41.4151C89.5263 41.4178 89.7005 41.4205 89.8774 41.426C89.91 41.426 89.9373 41.4477 89.9454 41.4804C89.9536 41.5103 89.94 41.543 89.9128 41.5593C89.8992 41.5675 89.8855 41.5784 89.8719 41.5893C89.8311 41.6192 89.7876 41.6546 89.7304 41.6546C89.608 41.6573 89.4828 41.66 89.3603 41.6627C88.9956 41.6709 88.6201 41.6791 88.2499 41.6519C87.5995 41.6001 86.9708 41.3634 86.3286 40.9307C85.6237 40.4571 85.0059 40.2285 84.3854 40.2122C83.8765 40.2013 83.3649 40.2639 82.8695 40.3292C81.8653 40.4571 80.8039 40.7293 79.5303 41.1865C79.0404 41.3634 78.5342 41.5185 78.0471 41.6709C77.8185 41.7417 77.5898 41.8124 77.364 41.8859C77.3585 41.8886 77.3503 41.8913 77.3449 41.8913C78.0362 42.0846 78.605 42.5227 79.0295 43.1922C79.5493 44.0087 80.1998 44.6509 80.9618 45.1054C81.1795 45.2333 81.419 45.3395 81.6476 45.4402C81.751 45.4864 81.8544 45.5327 81.9578 45.579C82.0123 45.6035 82.0667 45.628 82.1211 45.6497L82.1946 45.6797C82.347 45.7069 82.347 45.8947 82.1293 45.8593L82.0286 45.8293C81.9469 45.8049 81.868 45.7804 81.7891 45.7531C80.4773 45.2932 79.4758 44.5366 78.7274 43.4426C78.3655 42.9119 77.9001 42.5418 77.3476 42.3431C76.9258 42.1907 76.4904 42.2152 76.0576 42.4139C75.9379 42.4683 75.8209 42.5391 75.7093 42.6071C75.6249 42.6588 75.5406 42.7105 75.4535 42.7568C75.3364 42.8194 75.2194 42.8765 75.0997 42.9337C74.9364 43.0126 74.7649 43.097 74.6071 43.1868C73.7716 43.6658 73.113 44.2237 72.5986 44.8877C72.5115 44.9993 72.4353 45.1 72.3809 45.2116C72.3727 45.2279 72.3727 45.2551 72.3755 45.285C72.3945 45.334 72.4898 45.3585 72.5496 45.2878C72.9007 44.8632 73.1647 44.4904 73.6083 44.3815C73.8342 44.3271 73.9893 44.3189 74.2016 44.3189C74.2097 44.3189 74.2179 44.3189 74.2261 44.3189C74.5554 44.3216 74.9418 44.3352 75.3201 44.3951C75.4861 44.4223 75.644 44.4876 75.7964 44.5502C75.8753 44.5829 75.9515 44.6156 76.0304 44.6428C76.6183 44.8442 77.1163 45.2034 77.5953 45.5518C77.8429 45.7314 78.1015 45.9164 78.3655 46.077C78.9996 46.4607 79.7153 46.8935 80.4991 47.0976C81.6476 47.3969 82.7199 47.2146 83.6887 46.5533C84.2684 46.1586 84.3909 45.5191 84.0044 44.9231C83.95 44.8387 83.8629 44.7108 83.7649 44.5639C83.3159 43.8971 83.0981 43.5623 83.0791 43.4698C83.0029 43.0888 83.1798 42.7323 83.539 42.5363C84.0262 42.2724 84.5487 42.3241 84.9515 42.3948C85.2917 42.4574 85.6319 42.5527 85.9612 42.6479C86.0809 42.6833 86.2034 42.716 86.3231 42.7486C87.2756 43.0044 88.0594 43.067 88.7888 42.9364C89.2596 42.852 89.6651 42.686 89.9944 42.4411C90.0298 42.4139 90.0652 42.3894 90.1033 42.3649C90.2611 42.256 90.4108 42.1526 90.4761 41.9648C90.5088 41.8723 90.5605 41.7906 90.6095 41.7117C90.6584 41.6355 90.7047 41.562 90.7292 41.4858C90.8734 41.0749 90.7673 40.6884 90.4271 40.37C90.2992 40.2503 90.1223 40.1659 89.9536 40.0843C89.9128 40.0652 89.8692 40.0434 89.8284 40.0244C89.725 39.9727 89.6488 39.872 89.6161 39.7468C89.5835 39.6216 89.6052 39.4964 89.6706 39.4012C89.9944 38.9412 90.4734 38.6936 90.9388 38.4541C91.8722 37.9724 92.5608 37.4771 93.1078 36.8892C93.4453 36.5273 93.7392 36.1925 93.9215 35.768C94.1365 35.2672 94.1474 34.8236 93.9569 34.4072C93.78 34.048 93.5051 33.8766 93.1023 33.8983Z" fill="white"/>
<path d="M82.7552 55.6784C82.7253 55.4063 82.562 55.1967 82.3171 55.0743C82.0286 54.93 81.7374 54.7939 81.4353 54.6824C81.1414 54.5735 79.8024 54.2578 78.6349 54.4646C76.9394 54.8293 75.5596 55.7301 74.422 57.0256C74.256 57.2134 74.2179 57.4256 74.2805 57.6678C74.4084 58.1632 74.637 58.6122 74.8792 59.0585C75.3065 59.8505 75.8181 60.5608 76.5611 61.1024C77.1762 61.5514 77.8048 61.9542 78.5587 62.1093C79.0322 62.2073 79.5085 62.278 79.9847 62.3597C80.1127 62.3815 80.2406 62.406 80.3685 62.425C80.7087 62.4713 80.94 62.2808 81.1359 62.0467C81.2584 61.9025 81.3373 61.7201 81.4435 61.5596C81.6204 61.2929 81.7864 61.0153 81.9905 60.7676C82.5484 60.0845 82.8967 59.3171 82.9621 58.4353C82.9811 58.2013 82.9729 57.9645 82.9539 57.7304C82.894 57.0473 82.8314 56.3615 82.7552 55.6784ZM81.204 58.9905C81.438 58.2992 81.3047 58.0434 81.3945 57.9373C81.9007 57.4909 81.5578 58.8299 81.3673 59.0667C81.34 59.1565 81.1686 59.1483 81.204 58.9905ZM82.4314 57.8121C82.4123 58.2285 82.3497 58.6476 82.2735 59.0585C82.1919 59.5048 81.9252 59.8586 81.6421 60.1907C81.6231 60.2124 81.5197 60.2587 81.4462 60.2233C81.2693 60.1743 81.5931 59.7253 81.6993 59.5511C82.2109 58.7129 82.0776 57.529 81.7891 56.1084C81.7782 56.0567 81.9905 55.9587 82.0667 56.0077C82.1266 56.0186 82.2436 56.0839 82.2572 56.1356C82.4069 56.6446 82.4586 57.2814 82.4314 57.8121Z" fill="white"/>
<path d="M81.5931 49.8163C80.823 49.2992 79.9548 49.0462 79.0404 48.9264C77.4483 48.7196 75.9379 48.9291 74.5227 49.7265C72.7946 50.7008 71.8203 52.184 71.5073 54.1217C71.442 54.5218 71.4284 54.9409 71.6869 55.2784C72.0788 55.7927 72.4897 56.2989 73.0994 56.5874C73.4831 56.7697 73.6681 56.7453 73.943 56.4187C74.1145 56.2146 74.2614 55.9887 74.4438 55.7955C75.8807 54.3014 77.383 53.6237 79.6418 53.6264C80.3685 53.5802 81.6448 54.1163 81.8544 54.1979C82.3905 54.4075 82.347 54.5653 82.8096 53.9802C82.9838 53.7598 83.1362 53.3107 83.1689 52.4072C83.158 51.1907 82.5647 50.4668 81.5931 49.8163Z" fill="white"/>
<path d="M57.38 56.5792C56.9174 56.4405 56.2343 56.4513 55.5512 56.5112C55.1076 56.5493 54.6939 56.699 54.3102 56.9249C53.9618 57.129 53.5781 57.2623 53.306 57.6134C53.0991 57.8801 52.9277 58.1495 52.8134 58.4598C52.6338 58.9442 52.6719 59.4259 52.8923 59.8859C52.9984 60.109 53.0393 60.109 53.2543 59.9866C53.8965 59.6246 54.5796 59.3742 55.3226 59.4559C56.8031 59.6192 58.191 60.0328 59.296 61.1105C59.4593 61.2684 59.5463 61.2711 59.7151 61.1187C59.9382 60.92 60.0934 60.6751 60.1532 60.3866C60.3601 59.4069 60.1287 58.5278 59.5082 57.7549C59.0184 57.1372 58.3244 56.846 57.38 56.5792Z" fill="white"/>
<path d="M57.1188 60.3893C56.1227 60.0818 55.328 60.0111 54.5197 60.139C54.0489 60.2124 53.5781 60.2995 53.1617 60.5581C52.9549 60.686 52.8324 60.8547 52.8106 61.1024C52.7943 61.3038 52.7508 61.4997 52.7344 61.7011C52.6582 62.5992 52.7508 63.4674 53.3032 64.2158C53.6516 64.6893 54.0353 65.1411 54.4299 65.5819C54.5524 65.7207 54.7484 65.797 54.9198 65.884C54.9906 65.9194 55.094 65.8922 55.1756 65.914C55.4968 65.9929 55.8097 66.0228 56.0873 65.7861C56.1145 65.7616 56.1526 65.7507 56.188 65.7371C56.8412 65.4976 57.4072 65.1193 57.9189 64.6566C58.4142 64.2103 58.8088 63.7041 58.9667 63.0401C59.0265 62.7843 59.1191 62.5366 59.2143 62.2917C59.315 62.0331 59.266 61.8208 59.0837 61.6167C58.4904 60.9527 57.7229 60.5935 57.1188 60.3893ZM57.0208 63.4728C57.0535 63.4374 57.1269 63.4401 57.1814 63.4238C57.1841 63.4837 57.2113 63.5544 57.1895 63.598C57.0861 63.7858 56.9092 63.8701 56.7105 63.9191C56.6969 63.9055 56.6861 63.8919 56.6724 63.881C56.7867 63.7449 56.8956 63.6007 57.0208 63.4728ZM56.5364 64.7927C56.52 64.7982 56.501 64.8036 56.4819 64.8036C56.4711 64.8036 56.4629 64.7927 56.4085 64.7601C57.2167 64.2103 57.9298 63.5925 58.2183 62.6128C58.2482 62.621 58.2781 62.6291 58.3081 62.64C58.3162 62.6999 58.3462 62.7652 58.3298 62.8196C58.0686 63.7803 57.4835 64.4525 56.5364 64.7927Z" fill="white"/>
<path d="M69.7846 48.0664C69.6186 47.7317 69.0661 47.6555 68.7422 47.6881C68.5681 47.7072 68.07 47.7126 67.4359 48.3059C67.2917 48.4393 67.0903 48.7332 66.9107 48.8584C66.5215 49.1278 66.1269 49.3618 65.7404 49.5932C65.3513 49.8245 64.9675 50.0531 64.6028 50.3089C65.109 50.4123 65.7214 51.0601 65.7323 51.9581C65.7649 52.1024 65.8466 52.0235 66.5406 51.6207C66.6521 51.5554 67.1774 51.2288 67.3162 51.2614C67.4114 51.2832 67.4005 50.9811 67.5829 50.9022C67.9829 50.728 68.5844 49.9769 68.9545 49.7946C69.9914 49.2856 69.6403 49.2693 69.6512 49.2448C69.8009 48.8584 69.937 48.3767 69.7846 48.0664Z" fill="white"/>
<path d="M63.155 52.5024C62.9101 51.9854 62.7686 51.9718 62.51 51.9854C62.1807 52.0561 61.9685 52.048 61.7861 52.1051C61.0976 52.3147 60.937 51.9799 60.2458 52.1868C59.4647 52.4235 58.7 52.7256 57.8617 52.7229C57.761 52.7229 57.6277 52.8127 57.5678 52.9025C57.4454 53.0876 57.2902 53.1991 57.0834 53.2563C56.9038 53.3053 56.7296 53.3788 56.55 53.425C55.709 53.64 54.8627 53.8387 54.0217 54.0619C52.9141 54.3531 51.8091 54.6606 50.7042 54.9654C50.4783 55.028 50.2661 55.0226 50.0429 54.9464C48.3284 54.3612 46.8315 53.4141 45.4817 52.2194C44.9483 51.7459 44.4312 51.2506 43.9059 50.7689C43.7127 50.592 43.5957 50.6056 43.4596 50.8315C43.3698 50.9811 43.3072 51.1471 43.2119 51.2887C43.1602 51.3649 43.0541 51.4628 42.9861 51.4547C42.4309 51.3866 41.8566 51.3676 41.3314 51.1934C40.3108 50.8587 39.3148 50.4477 38.414 49.8381C37.7853 49.4136 37.1049 49.0625 36.6014 48.4746C36.5769 48.4474 36.5416 48.4229 36.5089 48.4066C36.3701 48.3386 36.2558 48.3903 36.2476 48.5427C36.2395 48.6679 36.2694 48.7958 36.2966 48.921C36.3293 49.0706 36.4245 49.2258 36.4028 49.3646C36.332 49.8435 36.5198 50.2191 36.8709 50.4831C37.2437 50.7607 37.6547 51.0056 38.0819 51.188C39.5706 51.8275 41.1463 52.165 42.733 52.4535C43.1766 52.5351 43.6229 52.6031 44.0638 52.6957C44.4774 52.7828 44.7986 53.044 45.1252 53.2998C45.7484 53.787 46.3906 54.2496 47.0193 54.7286C47.4847 55.0824 47.9201 55.4798 48.4971 55.6594C48.6794 55.7165 48.8509 55.8009 49.0795 55.8934C48.9407 55.9887 48.8454 56.0622 48.7447 56.1193C48.0235 56.5357 47.2996 56.9439 46.5784 57.363C46.4532 57.4365 46.3553 57.5508 46.2328 57.6297C45.9851 57.7903 45.7293 57.9373 45.4817 58.1006C45.3973 58.155 45.3429 58.2502 45.2585 58.3074C45.0626 58.438 44.8557 58.5578 44.6543 58.683C44.4148 58.8326 44.189 59.0204 43.9304 59.1238C43.4895 59.3007 43.0296 59.4314 42.5751 59.5756C42.3901 59.6355 42.1995 59.6709 42.0172 59.7335C41.8621 59.7879 41.8403 59.8967 41.9764 59.9838C42.1914 60.1253 42.4118 60.2614 42.6459 60.3676C42.8745 60.471 43.1221 60.4546 43.3344 60.324C44.1862 59.8015 45.0326 59.2708 45.8817 58.7428C45.8981 58.7319 45.9117 58.7183 45.9253 58.7047C46.1103 58.5551 46.2872 58.3918 46.4832 58.2584C46.7581 58.0733 47.052 57.9128 47.335 57.7386C47.4466 57.6706 47.5527 57.5944 47.6643 57.5263C47.912 57.3766 48.1623 57.227 48.4127 57.0827C48.5461 57.0065 48.6849 56.9466 48.8237 56.8841C48.8808 56.8596 48.9407 56.8405 48.9978 56.8215C49.3571 56.7017 49.7163 56.5738 50.081 56.4704C50.2497 56.4214 50.4293 56.4187 50.6062 56.3996C50.6389 56.3969 50.7015 56.4078 50.7042 56.4241C50.7151 56.4595 50.7069 56.5085 50.6879 56.5439C50.6716 56.5765 50.6198 56.5901 50.6062 56.6201C50.5817 56.6772 50.5491 56.7507 50.5681 56.797C50.5845 56.8351 50.6716 56.8623 50.726 56.8596C50.8675 56.8541 51.009 56.8405 51.1478 56.8079C51.2213 56.7888 51.2975 56.7344 51.3492 56.6772C51.4717 56.5466 51.5533 56.3534 51.7003 56.2744C52.016 56.1003 52.3616 55.9723 52.7018 55.8417C52.8188 55.7982 52.9549 55.8145 53.0801 55.79C53.6407 55.6784 54.2013 55.5587 54.762 55.4498C54.8899 55.4253 57.2304 54.9817 57.3229 55.1151C57.2276 55.8118 56.2669 55.956 56.2044 55.9642C56.0356 56.2363 57.1242 56.2173 57.2548 56.1683C58.2291 55.7982 57.6848 54.7722 58.6646 54.4102C60.1043 53.8795 61.1275 54.6225 62.5699 54.1054C62.7577 54.0374 62.9591 53.9394 63.1169 53.5666C63.2394 53.3488 63.302 52.8181 63.155 52.5024Z" fill="white"/>
<path d="M75.1541 44.6646C74.8901 44.7163 75.1078 44.7598 74.3839 45.1299C73.9947 45.3286 73.7307 45.5708 73.396 45.5545C73.0612 45.5381 72.302 45.6062 72.1087 45.7314C71.9155 45.8538 71.1208 45.9436 71.5454 46.1559C71.5454 46.1559 72.057 46.5097 72.1632 46.8254C72.2693 47.1438 72.3918 47.4949 72.1985 47.865C72.0053 48.2351 71.9699 48.325 71.9699 48.325C71.9699 48.325 72.0053 48.412 72.6938 47.9902C73.3824 47.5657 73.5239 47.7426 73.6981 47.6718C73.875 47.601 74.4029 47.5303 74.8084 48.0065C75.2139 48.4828 75.6194 48.7114 75.6194 48.7114L76.2726 48.5699C76.2726 48.5699 75.3908 47.9521 75.1786 47.601C74.9663 47.2472 74.4546 47.0186 74.3485 47.0023C74.2424 46.986 75.2303 46.8962 75.6712 46.6322C76.112 46.3682 76.8659 45.9627 76.8659 45.9627C76.8659 45.9627 77.3639 45.7586 77.1326 45.6198C76.904 45.4783 76.2345 44.9558 75.6004 44.9204C74.9663 44.8823 75.4208 44.6101 75.1541 44.6646Z" fill="white"/>
<path d="M100.426 79.4697V63.7341L94.4495 69.0927C94.395 69.1281 94.3651 69.2369 94.3651 69.3131C94.3624 70.5514 94.3678 74.699 94.3678 75.9372C94.3651 83.669 94.3597 91.4008 94.3542 99.1325C94.3542 99.2223 94.3542 99.3121 94.3542 99.4155C96.3981 99.4155 98.412 99.4155 100.426 99.4155V89.5692L97.9711 90.421V98.2889C97.5574 98.2889 97.1737 98.2889 96.7627 98.2889C96.76 98.2317 96.7519 98.1609 96.7519 98.0902C96.7519 96.2232 96.7491 94.3563 96.7519 92.4921C96.7546 86.8722 96.76 81.255 96.7655 75.6351C96.7655 74.4023 96.7519 70.8725 96.7246 69.6397C96.7083 68.8967 97.2499 68.1374 97.9411 67.8626C97.9466 67.8598 97.9493 70.0806 97.9548 70.0779V80.5665L100.426 79.4697Z" fill="#003116"/>
<path d="M33.3901 80.3216C33.4064 78.0954 33.42 72.2333 33.4391 70.0071C33.4391 69.9363 33.401 69.8656 33.3003 69.7839L30.8781 67.6176C30.8781 70.1132 30.8781 77.053 30.8781 79.535C30.7529 79.4942 30.0209 78.822 29.6208 79.448C29.6181 79.4507 29.6099 79.448 29.5854 79.448C29.5854 79.3854 29.5854 79.32 29.5854 79.2575C29.5936 78.2423 29.6072 77.2245 29.6126 76.2094C29.6208 74.5493 29.6208 68.2599 29.629 66.6025C29.629 66.4855 29.5909 66.4447 29.4902 66.3685L27.0599 64.1586C27.0599 74.0567 27.0599 89.5284 27.0599 99.4101C27.8927 99.4101 28.7145 99.4101 29.5609 99.4101C29.5609 94.9877 29.5609 90.783 29.5609 86.3034C29.9202 86.7062 30.3855 86.8804 30.8046 86.9865C30.8046 91.2864 30.8046 95.1074 30.8046 99.4074C31.6483 99.4074 32.4756 99.4074 33.3166 99.4074C33.3166 94.8761 33.3166 90.832 33.3166 86.3007C33.2404 86.2816 33.1642 86.2598 33.0853 86.2462C32.1844 86.0911 30.3774 85.3182 30.3774 85.3182C30.0072 85.2665 29.5174 84.529 29.5963 83.0376C29.629 82.5831 29.697 82.1341 29.8984 81.7177C30.0045 81.4972 30.0835 81.4646 30.3121 81.5299C30.9081 81.7041 32.922 82.7382 33.3574 82.8825C33.3574 82.7954 33.3574 82.3191 33.3574 82.2565C33.371 81.6061 33.3846 80.9638 33.3901 80.3216Z" fill="#003116"/>
<path d="M40.8987 94.0733C40.9014 92.1056 40.8987 90.1407 40.9068 88.1731C40.9123 86.8096 40.9286 85.4461 40.9395 84.0799C40.9504 82.3545 40.9558 78.5852 40.9694 76.8598C40.9694 76.7401 40.9177 76.6122 40.8143 76.5414L38.482 74.4486C38.4493 77.8722 38.4194 83.5737 38.3867 86.9674C38.3704 86.9729 38.4221 86.4667 37.1648 86.1782C37.1648 85.5876 37.2383 74.2526 37.2383 73.4552C37.2383 73.3736 37.1811 73.2647 37.1131 73.2157C37.1158 73.1967 34.7318 71.0739 34.7318 71.0739C34.6937 75.3521 34.6556 82.3681 34.6175 86.6082C34.6175 86.6082 37.4968 87.6533 37.5757 87.6968C38.6943 88.2982 38.3731 89.6481 38.3731 89.8468C38.3786 92.8377 38.3758 95.1482 38.3758 98.1364C38.3758 98.2072 38.3758 98.278 38.3758 98.3269C37.9404 98.3269 37.5349 98.3269 37.124 98.3269C37.124 98.2154 37.124 98.1364 37.124 98.0575C37.124 95.9701 37.124 93.8827 37.1267 91.7954C37.1267 91.6511 37.0995 91.5858 36.9389 91.564C36.4817 91.5042 34.944 90.8673 34.6229 90.8211C34.6229 93.5671 34.6229 96.675 34.6229 99.3992C36.7103 99.3992 38.7841 99.3992 40.8878 99.3992C40.8878 99.3148 40.8878 99.2495 40.8878 99.1842C40.8905 97.486 40.8959 95.7796 40.8987 94.0733Z" fill="#003116"/>
<path d="M92.9636 83.0784C93.1214 83.0158 93.165 82.9369 93.165 82.7736C93.1568 79.9841 93.1568 76.7482 93.1541 73.9587C93.1541 73.6348 93.1541 70.6031 93.1541 70.2303C93.0534 70.3092 89.2705 73.7791 87.4417 75.3439C87.3709 75.4038 87.3301 75.5372 87.3301 75.6351C87.3273 77.7878 87.3274 82.3817 87.3328 84.5371C87.3328 84.8909 87.341 85.2475 87.3763 85.5985C87.4335 86.2136 87.5941 86.7933 88.0077 87.2777C88.2554 87.5662 88.5575 87.7757 88.914 87.9036C88.9004 87.9309 88.8949 87.9445 88.8868 87.9526C88.8487 87.988 88.8078 88.0234 88.767 88.0588C87.7846 88.9051 87.311 89.9638 87.3246 91.2701C87.3491 93.5181 87.3274 95.766 87.3246 98.014C87.3246 98.082 87.3165 98.1473 87.3165 98.2154C87.3165 98.6018 87.3165 98.991 87.3165 99.3856H89.6406V99.4019C90.8027 99.4019 91.9648 99.4019 93.135 99.4019C93.135 96.6859 93.135 93.8093 93.135 91.0823C92.4165 91.2184 91.709 91.5259 90.9986 91.6511C90.8571 91.6756 90.8136 91.7219 90.8136 91.8661C90.8163 92.8758 90.8054 93.8855 90.8027 94.8951C90.8 95.9266 90.8027 96.9553 90.8 97.9868C90.8 98.1174 90.7836 98.248 90.7755 98.3868C90.3918 98.3868 90.0325 98.3868 89.6488 98.3868C89.6488 98.0249 89.6488 97.6792 89.6488 97.3336C89.6515 95.0802 89.6488 92.8241 89.6597 90.5707C89.6624 90.1842 89.6842 89.7951 89.744 89.4113C89.8447 88.7636 90.0597 88.1731 90.751 87.9118C90.7836 87.8982 90.8218 87.8438 90.8218 87.8084C90.8272 87.4628 90.8245 87.1171 90.8245 86.7715C90.2774 86.7851 90.1005 86.6599 89.9209 86.151C89.91 86.1183 89.8992 86.0884 89.8883 86.0557C89.7059 85.4733 89.6678 84.8719 89.6624 84.2704C89.6461 82.2838 89.6624 77.6055 89.6352 75.6188C89.6297 75.216 89.725 74.9412 90.0761 74.7343C90.3183 74.5901 90.5305 74.3941 90.7564 74.22C90.7755 74.2281 90.7918 74.2363 90.8109 74.2445C90.8109 76.4325 90.8109 81.9653 90.8109 84.1697C90.819 84.1779 92.9636 83.1737 92.9636 83.0784Z" fill="#003116"/>
<path d="M66.7692 90.3747C67.0277 90.274 67.2726 90.2196 67.4795 90.0917C67.6836 89.9638 67.8496 89.825 68.0428 89.6454C68.0428 92.9139 68.0428 96.1171 68.0428 99.3883H70.5738C70.5738 94.0379 70.5738 88.701 70.5738 83.3506C69.7274 83.3506 68.8919 83.3506 68.0428 83.3506C68.0428 83.4377 68.0428 83.5111 68.0428 83.5846C68.0428 84.8229 68.0483 86.0585 68.0401 87.2967C68.0374 87.9499 67.8823 88.5541 67.4305 89.0358C67.2563 89.2208 67.044 89.327 66.7637 89.3297C66.7637 87.3294 66.7637 85.3427 66.7637 83.3533C65.9065 83.3533 65.0737 83.3533 64.2409 83.3533C64.2409 88.7092 64.2409 94.0515 64.2409 99.3911H66.7692C66.7692 96.3593 66.7692 93.3439 66.7692 90.3747Z" fill="#003116"/>
<path d="M82.7307 84.7385C83.1607 84.4147 83.4546 83.7942 83.7731 83.0403V99.3883H86.1163V76.5686C85.9611 76.6883 84.9215 77.6245 83.7649 78.6696C83.7703 79.4697 83.7758 79.3336 83.7758 79.3473C83.7703 80.9121 82.2572 85.0025 80.1997 85.3454V99.3883H82.5974V84.9862C82.5974 84.8882 82.6518 84.7984 82.7307 84.7385Z" fill="#003116"/>
<path d="M74.3839 90.3149C74.9146 90.3013 75.2766 90.0046 75.6086 89.5365C75.6086 92.8595 75.6086 96.1198 75.6086 99.3856H78.028C78.028 94.0324 78.028 88.6956 78.028 83.3533C77.2197 83.3533 76.4223 83.3533 75.614 83.3533C75.614 83.4513 75.614 83.5302 75.614 83.6118C75.614 84.8147 75.614 86.0204 75.614 87.2233C75.614 87.8302 75.5052 88.4071 75.1405 88.897C74.9527 89.1501 74.7214 89.3161 74.3894 89.327C74.3894 87.3348 74.3894 85.3509 74.3894 83.3506C73.5375 83.3506 72.7129 83.3506 71.891 83.3506C71.891 88.7037 71.891 94.0433 71.891 99.3856H74.3894C74.3839 96.3593 74.3839 93.3439 74.3839 90.3149Z" fill="#003116"/>
<path d="M44.687 99.1352C44.687 96.2804 44.6843 93.4228 44.6924 90.568C44.6924 90.372 44.7305 90.1679 44.7986 89.9829C44.9102 89.6808 45.0843 89.6046 45.3973 89.6617C45.977 89.7624 47.9936 90.7694 48.4345 90.8265C48.4399 90.7612 48.4481 90.7231 48.4481 90.685C48.4535 88.2901 48.4563 85.8353 48.4644 83.4431C48.4644 83.3288 48.4182 83.2417 48.3147 83.1574L42.2322 77.845C42.2104 84.4746 42.1914 92.8023 42.1696 99.4019C43.0296 99.4019 43.8488 99.4019 44.687 99.4019C44.687 99.3067 44.687 99.2223 44.687 99.1352ZM44.7142 81.5353C44.7142 81.5353 45.5089 82.1885 45.6368 82.2674C45.9498 82.4634 45.977 82.7437 45.9743 83.0213C45.9525 84.8392 45.9525 86.3415 45.9471 88.1622C45.9471 88.222 45.9416 88.7146 45.9362 88.7936C45.9362 88.7936 45.1197 88.3472 44.7142 88.5922C44.7142 86.3932 44.7142 83.7534 44.7142 81.5353Z" fill="#003116"/>
<path d="M59.1789 91.9968C59.5654 92.3587 60.0117 92.1791 60.4335 92.2553C60.4335 94.642 60.4335 97.0152 60.4335 99.3883H62.9074C62.9074 96.675 62.9074 93.9726 62.9074 91.2592C62.8312 91.2592 62.7686 91.2592 62.706 91.2592C61.7589 91.2592 60.8091 91.2565 59.862 91.262C59.6198 91.2647 59.4511 91.1585 59.3286 90.949C59.1626 90.6605 59.13 90.3421 59.2007 90.021C59.2905 89.5991 59.4783 89.3134 59.9981 89.3297C60.9016 89.3596 61.8052 89.3379 62.7087 89.3379C62.774 89.3379 62.8421 89.3379 62.9074 89.3379C62.9074 87.324 62.9074 85.34 62.9074 83.3478C62.0773 83.3478 61.2582 83.3478 60.4145 83.3478C60.4145 85.0188 60.4145 86.6817 60.4145 88.3472C59.9791 88.3744 59.5436 88.2629 59.1599 88.6303C59.1599 88.1839 59.1599 83.7234 59.1599 83.3478C58.3353 83.3478 57.5297 83.3478 56.7242 83.3478C56.7242 85.3345 56.7242 97.2846 56.7242 99.3883H59.1735C59.1789 98.6835 59.1789 92.4785 59.1789 91.9968Z" fill="#003116"/>
<path d="M56.1118 95.4639C55.2437 95.4639 54.3891 95.4639 53.5155 95.4639C53.5155 96.46 53.5155 97.4397 53.5155 98.414C53.0882 98.414 52.6827 98.414 52.28 98.414C52.28 93.7113 52.28 89.0249 52.28 84.333C52.6964 84.333 53.1019 84.333 53.5237 84.333C53.5237 84.6814 53.5237 86.7633 53.5237 87.1171C54.4 87.1171 55.26 87.1171 56.1173 87.1171C56.1173 86.4504 56.1173 84.0092 56.1173 83.3342H49.7571C49.7571 88.7827 49.7571 93.9698 49.7571 99.3911H56.1118C56.1118 98.0711 56.1118 96.7648 56.1118 95.4639Z" fill="#003116"/>
<path d="M75.0044 82.5722C75.4734 82.5722 75.8535 82.1701 75.8535 81.6741C75.8535 81.1781 75.4734 80.776 75.0044 80.776C74.5355 80.776 74.1553 81.1781 74.1553 81.6741C74.1553 82.1701 74.5355 82.5722 75.0044 82.5722Z" fill="#003116"/>
<path d="M87.3192 99.3883C87.3192 99.3938 87.3192 99.3992 87.3192 99.4047C88.0975 99.4047 88.8704 99.4047 89.6433 99.4047V99.3883H87.3192Z" fill="white"/>
<path d="M86.1163 99.3883H83.7731V99.3992H86.1163V99.3883Z" fill="white"/>
<path d="M82.5974 99.3883H80.1997V99.4019H82.5974V99.3883Z" fill="white"/>
<path d="M56.1118 99.4047C56.1118 99.3992 56.1118 99.3938 56.1118 99.3883H49.7571C49.7571 99.3938 49.7571 99.3992 49.7571 99.4047C51.8826 99.4047 53.9945 99.4047 56.1118 99.4047Z" fill="white"/>
</svg>
