<svg width="271" height="438" viewBox="0 0 271 438" fill="none" xmlns="http://www.w3.org/2000/svg">
<path d="M0.419983 407.83V388.58H8.11998V407.83H5.63998V391.33H2.86998V407.83H0.419983Z" fill="#558653"/>
<path d="M18.75 393.34V395.84C18.75 398.92 17.55 400.6 15.11 400.6H13.96V407.83H11.52V388.58H15.11C17.55 388.59 18.75 390.26 18.75 393.34ZM13.95 397.85H15.1C15.88 397.85 16.3 397.41 16.3 396.04V393.15C16.3 391.77 15.88 391.33 15.1 391.33H13.95V397.85Z" fill="#558653"/>
<path d="M21.5 407.83V388.58H23.67V400.76L24.56 396.53L26.56 388.58H29.24V407.83H27.04V394.27L26.04 399L24 407.83H21.5Z" fill="#558653"/>
<path d="M39.89 393.01V393.7C39.89 395.68 39.4 396.94 38.31 397.58C39.62 398.21 40.1299 399.67 40.1299 401.7V403.27C40.1299 406.24 38.87 407.83 36.42 407.83H32.58V388.58H36.2599C38.7999 388.59 39.89 390.04 39.89 393.01ZM35.03 396.42H35.9799C36.8899 396.42 37.44 395.92 37.44 394.39V393.32C37.44 391.94 37.06 391.34 36.2 391.34H35.0199V396.42H35.03ZM35.03 405.08H36.4299C37.2499 405.08 37.69 404.61 37.69 403.18V401.5C37.69 399.71 37.22 399.16 36.11 399.16H35.0199V405.08H35.03Z" fill="#558653"/>
<path d="M49.01 396.7V399.45H45.66V405.09H49.88V407.84H43.22V388.59H49.88V391.34H45.66V396.7H49.01Z" fill="#558653"/>
<path d="M59.84 388.59V391.34H57.29V407.84H54.85V391.34H52.3V388.59H59.84Z" fill="#558653"/>
<path d="M69.5999 403.21C69.5999 406.29 68.3599 408.05 65.9599 408.05C63.5599 408.05 62.3199 406.29 62.3199 403.21V393.2C62.3199 390.12 63.5599 388.36 65.9599 388.36C68.3599 388.36 69.5999 390.12 69.5999 393.2V395.07H67.2899V393.01C67.2899 391.63 66.8 391.11 66.03 391.11C65.25 391.11 64.7699 391.63 64.7699 393.01V403.4C64.7699 404.78 65.26 405.27 66.03 405.27C66.81 405.27 67.2899 404.78 67.2899 403.4V400.65H69.5999V403.21Z" fill="#558653"/>
<path d="M79.54 388.59V391.34H76.99V407.84H74.55V391.34H72V388.59H79.54Z" fill="#558653"/>
<path d="M89.52 393.01V393.7C89.52 395.68 89.03 396.94 87.94 397.58C89.25 398.21 89.76 399.67 89.76 401.7V403.27C89.76 406.24 88.5 407.83 86.05 407.83H82.21V388.58H85.89C88.44 388.59 89.52 390.04 89.52 393.01ZM84.67 396.42H85.62C86.53 396.42 87.08 395.92 87.08 394.39V393.32C87.08 391.94 86.7 391.34 85.84 391.34H84.66V396.42H84.67ZM84.67 405.08H86.07C86.89 405.08 87.33 404.61 87.33 403.18V401.5C87.33 399.71 86.86 399.16 85.75 399.16H84.66V405.08H84.67Z" fill="#558653"/>
<path d="M93.34 407.86V405.17C94.58 405.28 95.29 405 95.49 403.6L95.51 403.43L92.14 388.58H94.56L95.89 395.15L96.64 399.66L97.22 395.18L98.33 388.58H100.88L98.26 402.93C97.69 406.4 96.73 408.14 93.34 407.86Z" fill="#558653"/>
<path d="M109.32 396.7V399.45H105.97V405.09H110.19V407.84H103.53V388.59H110.19V391.34H105.97V396.7H109.32Z" fill="#558653"/>
<path d="M120.14 388.59H123.53V407.84H121.22V394.04L119.53 407.84H117.22L115.4 394.23V407.84H113.27V388.59H116.66L118.46 402.26L120.14 388.59Z" fill="#558653"/>
<path d="M139.29 393.01V393.7C139.29 395.68 138.8 396.94 137.71 397.58C139.02 398.21 139.53 399.67 139.53 401.7V403.27C139.53 406.24 138.27 407.83 135.82 407.83H131.98V388.58H135.66C138.2 388.59 139.29 390.04 139.29 393.01ZM134.43 396.42H135.38C136.29 396.42 136.84 395.92 136.84 394.39V393.32C136.84 391.94 136.46 391.34 135.6 391.34H134.42V396.42H134.43ZM134.43 405.08H135.83C136.65 405.08 137.09 404.61 137.09 403.18V401.5C137.09 399.71 136.62 399.16 135.51 399.16H134.42V405.08H134.43Z" fill="#558653"/>
<path d="M148.05 407.83L147.63 404.34H144.63L144.21 407.83H141.97L144.45 388.58H148.02L150.51 407.83H148.05ZM147.3 401.73L146.12 392L144.94 401.73H147.3Z" fill="#558653"/>
<path d="M160.35 403.21C160.35 406.29 159.11 408.05 156.71 408.05C154.31 408.05 153.07 406.29 153.07 403.21V393.2C153.07 390.12 154.31 388.36 156.71 388.36C159.11 388.36 160.35 390.12 160.35 393.2V395.07H158.04V393.01C158.04 391.63 157.55 391.11 156.78 391.11C156.01 391.11 155.52 391.63 155.52 393.01V403.4C155.52 404.78 156.01 405.27 156.78 405.27C157.55 405.27 158.04 404.78 158.04 403.4V400.65H160.35V403.21Z" fill="#558653"/>
<path d="M168.51 407.83V388.58H170.95V396.83H173.72V388.58H176.2V407.83H173.72V399.58H170.95V407.83H168.51Z" fill="#558653"/>
<path d="M185.04 407.83L184.62 404.34H181.62L181.2 407.83H178.96L181.44 388.58H185.01L187.5 407.83H185.04ZM184.29 401.73L183.11 392L181.93 401.73H184.29Z" fill="#558653"/>
<path d="M198.75 405.66C196.31 405.66 195.11 403.98 195.11 400.9V395.65C195.11 392.57 196.31 390.89 198.75 390.89H199.66V388.58H202.06V390.89H202.97C205.41 390.89 206.61 392.57 206.61 395.65V400.9C206.61 403.98 205.41 405.66 202.97 405.66H202.06V407.83H199.66V405.66H198.75ZM198.75 393.56C197.97 393.56 197.53 394.08 197.53 395.46V401.1C197.53 402.48 197.97 403.02 198.75 403.02H199.66V393.56H198.75ZM202.06 403.02H202.97C203.75 403.02 204.19 402.47 204.19 401.1V395.46C204.19 394.08 203.75 393.56 202.97 393.56H202.06V403.02Z" fill="#558653"/>
<path d="M215.3 407.83L214.88 404.34H211.88L211.46 407.83H209.22L211.7 388.58H215.27L217.76 407.83H215.3ZM214.55 401.73L213.37 392L212.19 401.73H214.55Z" fill="#558653"/>
<path d="M220.54 388.59H227.37V391.34H222.98V396.26H224.4C226.84 396.26 228.08 397.94 228.08 401.02V403.08C228.08 406.16 226.84 407.84 224.4 407.84H220.54V388.59ZM225.64 403.27V400.82C225.64 399.44 225.17 399.01 224.4 399.01H222.98V405.09H224.4C225.18 405.08 225.64 404.64 225.64 403.27Z" fill="#558653"/>
<path d="M238.58 393.34V395.84C238.58 398.92 237.38 400.6 234.94 400.6H233.79V407.83H231.35V388.58H234.94C237.38 388.59 238.58 390.26 238.58 393.34ZM233.79 397.85H234.94C235.72 397.85 236.14 397.41 236.14 396.04V393.15C236.14 391.77 235.72 391.33 234.94 391.33H233.79V397.85Z" fill="#558653"/>
<path d="M241.33 407.83V388.58H243.5V400.76L244.39 396.53L246.39 388.58H249.07V407.83H246.87V394.27L245.87 399L243.83 407.83H241.33Z" fill="#558653"/>
<path d="M254.86 401.92V407.83H252.42V388.58H254.86V396.97L258.05 388.58H260.49L257.1 397.16L260.49 407.83H257.98L255.61 400.16L254.86 401.92Z" fill="#558653"/>
<path d="M269.02 396.7V399.45H265.67V405.09H269.88V407.84H263.22V388.59H269.88V391.34H265.67V396.7H269.02Z" fill="#558653"/>
<path d="M43.62 434.68V415.43H45.79V427.61L46.68 423.38L48.68 415.43H51.36V434.68H49.16V421.13L48.16 425.86L46.12 434.69H43.62V434.68Z" fill="#558653"/>
<path d="M58.1499 417.96C57.3699 417.96 56.86 418.48 56.86 419.86V421.43H54.6199V420C54.6199 416.92 55.8199 415.21 58.2099 415.21C60.6099 415.21 61.8499 416.97 61.8499 420.05V420.55C61.8499 422.61 61.32 423.9 60.14 424.51C61.36 425.17 61.8499 426.6 61.8499 428.55V430.06C61.8499 433.14 60.6099 434.9 58.2099 434.9C55.8099 434.9 54.5699 433.14 54.5699 430.06V427.94H56.8799V430.25C56.8799 431.63 57.37 432.15 58.14 432.15C58.92 432.15 59.3999 431.68 59.3999 429.98V428.47C59.3999 426.68 58.9099 426.02 57.7999 426.02H57.2V423.27H57.9299C58.8399 423.27 59.39 422.77 59.39 421.24V420.17C59.42 418.43 58.9299 417.96 58.1499 417.96Z" fill="#558653"/>
<path d="M72.17 434.68H66.96V437.26H64.59V431.98H65.54C65.96 431.32 66.09 430.6 66.14 429.48L66.69 415.43H73.52V431.98H74.58V437.26H72.16V434.68H72.17ZM67.85 431.99H71.04V418.19H68.98L68.54 429.44C68.47 430.89 68.25 431.52 67.85 431.99Z" fill="#558653"/>
<path d="M83.36 423.55V426.3H80.0099V431.94H84.2299V434.69H77.5699V415.44H84.2299V418.19H80.0099V423.55H83.36Z" fill="#558653"/>
<path d="M88.17 429.98L88.57 415.44H95.47V434.69H92.99V418.19H90.86L90.59 429.82C90.5 433.34 89.48 434.71 87.04 434.71H86.66V431.96C87.77 431.96 88.13 431.77 88.17 429.98Z" fill="#558653"/>
<path d="M98.95 434.68V415.43H101.12V427.61L102.01 423.38L104.01 415.43H106.69V434.68H104.49V421.13L103.49 425.86L101.45 434.69H98.95V434.68Z" fill="#558653"/>
<path d="M114.6 425.86L112.56 434.69H110.05V415.44H112.22V427.62L113.11 423.39L115.11 415.44H117.79V434.69H115.59V421.13L114.6 425.86ZM115.06 411.15C114.99 412.17 114.62 412.41 113.95 412.41C113.31 412.41 112.97 412.16 112.91 411.15H111.4C111.44 413.02 112.24 414.2 113.95 414.2C115.68 414.2 116.55 413.02 116.55 411.15H115.06Z" fill="#558653"/>
<path d="M126.24 434.68V415.43H128.41V427.61L129.3 423.38L131.3 415.43H133.98V434.68H131.78V421.13L130.78 425.86L128.74 434.69H126.24V434.68Z" fill="#558653"/>
<path d="M140.78 417.96C140 417.96 139.49 418.48 139.49 419.86V421.43H137.25V420C137.25 416.92 138.45 415.21 140.84 415.21C143.24 415.21 144.48 416.97 144.48 420.05V420.55C144.48 422.61 143.95 423.9 142.77 424.51C143.99 425.17 144.48 426.6 144.48 428.55V430.06C144.48 433.14 143.24 434.9 140.84 434.9C138.44 434.9 137.2 433.14 137.2 430.06V427.94H139.51V430.25C139.51 431.63 140 432.15 140.77 432.15C141.54 432.15 142.03 431.68 142.03 429.98V428.47C142.03 426.68 141.54 426.02 140.43 426.02H139.83V423.27H140.56C141.47 423.27 142.02 422.77 142.02 421.24V420.17C142.04 418.43 141.55 417.96 140.78 417.96Z" fill="#558653"/>
<path d="M159.64 415.44H163.03V434.69H160.72V420.89L159.03 434.69H156.72L154.9 421.08V434.69H152.77V415.44H156.16L157.96 429.11L159.64 415.44Z" fill="#558653"/>
<path d="M171.86 434.68L171.44 431.19H168.44L168.02 434.68H165.78L168.26 415.43H171.83L174.32 434.68H171.86ZM171.11 428.58L169.93 418.85L168.75 428.58H171.11Z" fill="#558653"/>
<path d="M184.15 430.06C184.15 433.14 182.91 434.9 180.51 434.9C178.11 434.9 176.87 433.14 176.87 430.06V420.05C176.87 416.97 178.11 415.21 180.51 415.21C182.91 415.21 184.15 416.97 184.15 420.05V421.92H181.84V419.86C181.84 418.48 181.35 417.96 180.58 417.96C179.81 417.96 179.32 418.48 179.32 419.86V430.25C179.32 431.63 179.81 432.12 180.58 432.12C181.35 432.12 181.84 431.63 181.84 430.25V427.5H184.15V430.06Z" fill="#558653"/>
<path d="M194.34 430.06C194.34 433.14 193.1 434.9 190.7 434.9C188.3 434.9 187.06 433.14 187.06 430.06V420.05C187.06 416.97 188.3 415.21 190.7 415.21C193.1 415.21 194.34 416.97 194.34 420.05V421.92H192.03V419.86C192.03 418.48 191.54 417.96 190.77 417.96C190 417.96 189.51 418.48 189.51 419.86V430.25C189.51 431.63 190 432.12 190.77 432.12C191.54 432.12 192.03 431.63 192.03 430.25V427.5H194.34V430.06Z" fill="#558653"/>
<path d="M197.44 434.68V415.43H199.61V427.61L200.5 423.38L202.5 415.43H205.18V434.68H202.98V421.13L201.98 425.86L199.94 434.69H197.44V434.68Z" fill="#558653"/>
<path d="M215.84 419.86V420.55C215.84 422.53 215.35 423.79 214.26 424.43C215.57 425.06 216.08 426.52 216.08 428.55V430.12C216.08 433.09 214.82 434.68 212.37 434.68H208.53V415.43H212.21C214.75 415.44 215.84 416.89 215.84 419.86ZM210.98 423.27H211.93C212.84 423.27 213.39 422.77 213.39 421.24V420.17C213.39 418.79 213.01 418.19 212.15 418.19H210.97V423.27H210.98ZM210.98 431.93H212.38C213.2 431.93 213.64 431.46 213.64 430.03V428.35C213.64 426.56 213.17 426.01 212.06 426.01H210.97V431.93H210.98Z" fill="#558653"/>
<path d="M224.6 434.68L224.18 431.19H221.18L220.76 434.68H218.52L221 415.43H224.57L227.06 434.68H224.6ZM223.85 428.58L222.67 418.85L221.49 428.58H223.85Z" fill="#558653"/>
<path d="M257.97 85.64V184.2L270.13 189.26V80.56L257.97 85.64Z" fill="#1D622C"/>
<path d="M83.11 13.21L78.04 1.08L1.06 78.06L13.16 83.16L83.11 13.21Z" fill="#43723E"/>
<path d="M12.16 85.71L0 80.58V189.32L12.16 184.48V85.71Z" fill="#1D622C"/>
<path d="M187.03 256.92L192.14 269L269.28 191.87L257.13 186.82L187.03 256.92Z" fill="#005229"/>
<path d="M256.92 83.11L269.05 78.04L192.1 1.08L187.02 13.21L256.92 83.11Z" fill="#43723E"/>
<path d="M83.1 256.92L13.2 187.01L0.890015 191.91L77.98 268.99L83.1 256.92Z" fill="#005229"/>
<path d="M184.5 12.16L189.59 0H80.55L85.64 12.16H184.5Z" fill="#558653"/>
<path d="M184.5 257.97H85.63L80.46 270.14H189.65L184.5 257.97Z" fill="#003116"/>
<path d="M110.93 218.99C111.02 218.83 110.92 218.57 110.9 218.35C110.7 218.4 110.43 218.4 110.31 218.53C109.86 219.01 109.45 219.53 109.03 220.03C109.08 220.08 109.12 220.13 109.17 220.17C109.89 220 110.55 219.68 110.93 218.99Z" fill="#367A3A"/>
<path d="M158.67 68.77C160.48 68.79 161.95 67.46 162 65.74C162.06 63.94 160.5 62.31 158.71 62.29C156.99 62.27 155.49 63.74 155.47 65.44C155.45 67.26 156.89 68.75 158.67 68.77Z" fill="#367A3A"/>
<path d="M117.1 110.75C111.33 114.76 105.89 117.21 100.32 119.97C99.65 120.3 98.48 120.73 97.87 121.14C97.24 121.57 96.62 122.01 96.58 122.5C96.66 122.6 96.74 122.69 96.82 122.79C102.3 120.82 113.48 115.36 117.71 111.51C118.22 111.21 118.06 110.08 117.1 110.75Z" fill="#367A3A"/>
<path d="M114.71 215.37C113.65 218.97 111.03 221.24 108.06 223.26C108.25 223.38 108.29 223.42 108.33 223.42C108.4 223.42 108.47 223.41 108.53 223.38C112.01 222.13 114.16 219.66 115.13 216.12C115.18 215.92 115.08 215.68 115.05 215.46C114.93 215.43 114.82 215.4 114.71 215.37Z" fill="#367A3A"/>
<path d="M111.15 126.74C103.45 130.31 95.54 133.36 87.59 136.3C87.63 136.43 87.66 136.56 87.7 136.69C88.23 136.6 88.78 136.55 89.3 136.41C94.7 134.95 99.91 132.97 105.09 130.88C113.88 127.33 122.27 123.03 130.2 117.84C131.5 116.99 132.73 116.04 133.99 115.13C133.92 115 133.84 114.87 133.77 114.74C126.41 119.08 118.9 123.14 111.15 126.74Z" fill="#367A3A"/>
<path d="M202.34 191.09C202.07 190.91 201.28 191.27 201.32 191.46C202.38 196.68 202.87 201.04 200.99 204.11C200.6 204.75 199.41 206.4 200.06 206.58C200.33 206.71 200.71 206.54 200.78 206.46C201.83 205.24 202.8 203.94 203.1 202.3C203.38 200.79 203.61 199.26 203.68 197.72C203.77 195.77 203.59 193.43 203.04 191.55C202.99 191.37 202.56 191.13 202.34 191.09Z" fill="#367A3A"/>
<path d="M255.24 85.29L184.85 14.9H85.3L14.91 85.29V184.84L85.3 255.23H184.85L255.24 184.84V85.29ZM118.36 214.18C118.01 215.08 117.67 216 117.45 216.93C116.87 219.38 115.42 221.23 113.6 222.87C111.71 224.58 109.63 225.96 107.24 226.84C107.11 226.89 106.97 226.93 106.87 227.02C105.85 227.89 104.71 227.78 103.52 227.49C103.21 227.41 102.84 227.51 102.58 227.38C101.95 227.07 101.23 226.78 100.78 226.27C99.34 224.65 97.93 222.99 96.64 221.25C94.61 218.5 94.28 215.3 94.55 212.01C94.61 211.27 94.77 210.55 94.83 209.81C94.9 208.9 95.35 208.28 96.12 207.81C97.65 206.86 99.38 206.54 101.11 206.27C104.08 205.8 107 206.06 110.66 207.19C112.88 207.94 115.7 209.26 117.87 211.69C118.54 212.44 118.72 213.23 118.36 214.18ZM121.83 207.19C121.61 208.25 121.03 209.15 120.22 209.88C119.59 210.44 119.28 210.43 118.68 209.85C114.61 205.89 109.52 204.37 104.08 203.77C101.35 203.47 98.84 204.4 96.48 205.72C95.69 206.16 95.55 206.17 95.15 205.35C94.33 203.65 94.2 201.89 94.86 200.11C95.28 198.97 95.91 197.98 96.67 197C97.67 195.71 99.08 195.23 100.36 194.47C101.76 193.64 103.29 193.1 104.92 192.95C107.43 192.73 109.94 192.69 111.64 193.2C115.11 194.18 117.66 195.25 119.47 197.51C121.74 200.35 122.59 203.59 121.83 207.19ZM130.73 184.1C125.43 186 121.66 183.27 116.38 185.22C112.79 186.54 114.78 190.31 111.2 191.68C110.72 191.86 106.71 191.93 107.34 190.93C107.57 190.9 111.1 190.38 111.45 187.81C111.11 187.32 102.51 188.95 102.04 189.04C99.98 189.45 97.92 189.88 95.86 190.29C95.4 190.38 94.89 190.32 94.47 190.48C93.22 190.96 91.96 191.43 90.79 192.07C90.25 192.37 89.95 193.07 89.5 193.55C89.3 193.76 89.03 193.96 88.76 194.03C88.26 194.15 87.73 194.2 87.21 194.22C87.01 194.23 86.69 194.13 86.63 193.99C86.56 193.82 86.68 193.55 86.77 193.34C86.82 193.22 87.01 193.17 87.07 193.06C87.14 192.93 87.17 192.75 87.13 192.62C87.11 192.56 86.89 192.52 86.77 192.53C86.12 192.6 85.46 192.61 84.84 192.79C83.5 193.17 82.19 193.64 80.86 194.08C80.64 194.15 80.42 194.22 80.22 194.31C79.71 194.54 79.19 194.77 78.71 195.04C77.78 195.56 76.87 196.12 75.96 196.67C75.55 196.92 75.16 197.2 74.75 197.45C73.71 198.09 72.63 198.68 71.62 199.36C70.9 199.85 70.25 200.45 69.57 201C69.51 201.04 69.47 201.1 69.41 201.14C66.29 203.08 63.18 205.04 60.05 206.95C59.27 207.43 58.35 207.49 57.52 207.11C56.66 206.72 55.85 206.22 55.06 205.7C54.57 205.38 54.64 204.97 55.21 204.78C55.88 204.55 56.58 204.41 57.26 204.2C58.93 203.67 60.62 203.2 62.24 202.54C63.19 202.16 64.01 201.47 64.9 200.92C65.64 200.46 66.4 200.03 67.12 199.54C67.43 199.34 67.63 198.99 67.94 198.78C68.85 198.19 69.79 197.65 70.7 197.05C71.15 196.76 71.51 196.34 71.97 196.07C74.61 194.53 77.28 193.03 79.93 191.5C80.31 191.28 80.65 191.02 81.16 190.67C80.32 190.33 79.68 190.02 79.02 189.81C76.9 189.15 75.3 187.69 73.59 186.39C71.28 184.63 68.91 182.93 66.63 181.14C65.43 180.2 64.25 179.25 62.73 178.92C61.11 178.57 59.47 178.32 57.84 178.03C52.01 176.97 46.22 175.73 40.75 173.38C39.18 172.71 37.66 171.81 36.3 170.79C35.01 169.82 34.32 168.43 34.58 166.68C34.66 166.17 34.3 165.6 34.19 165.05C34.09 164.59 33.98 164.12 34.01 163.66C34.04 163.09 34.47 162.91 34.97 163.16C35.1 163.22 35.22 163.3 35.31 163.41C37.17 165.57 39.67 166.86 41.97 168.42C45.28 170.66 48.94 172.17 52.69 173.4C54.61 174.03 56.73 174.1 58.77 174.36C59.02 174.39 59.42 174.03 59.6 173.75C59.96 173.23 60.19 172.62 60.51 172.07C61.01 171.24 61.44 171.19 62.15 171.84C64.08 173.62 65.97 175.44 67.94 177.17C72.89 181.56 78.39 185.04 84.7 187.19C85.52 187.47 86.3 187.48 87.13 187.26C91.19 186.14 95.25 185.01 99.32 183.94C102.41 183.12 105.52 182.39 108.61 181.6C109.27 181.43 109.91 181.16 110.57 180.98C111.34 180.77 111.9 180.36 112.35 179.68C112.57 179.36 113.06 179.02 113.43 179.02C116.51 179.03 119.31 177.92 122.19 177.05C124.73 176.28 125.31 177.52 127.85 176.75C128.52 176.55 129.3 176.58 130.51 176.31C131.46 176.26 131.98 176.31 132.88 178.21C133.43 179.37 133.2 181.32 132.77 182.11C132.16 183.49 131.42 183.86 130.73 184.1ZM154.15 168.28C152.79 168.95 150.59 171.71 149.11 172.35C148.45 172.64 148.48 173.75 148.13 173.67C147.62 173.55 145.69 174.75 145.28 174.99C142.73 176.47 142.43 176.76 142.31 176.23C142.27 172.94 140.02 170.55 138.16 170.17C139.51 169.22 140.91 168.38 142.34 167.54C143.77 166.69 145.22 165.83 146.64 164.84C147.3 164.38 148.05 163.3 148.57 162.81C150.89 160.64 152.73 160.61 153.37 160.54C154.56 160.41 156.59 160.7 157.2 161.93C157.77 163.07 157.26 164.85 156.7 166.27C156.67 166.35 157.95 166.41 154.15 168.28ZM162.8 163.54C162.97 163.21 164.36 158.98 162.88 160.9C162.76 164.49 161.06 165.18 160.47 165.43C160.4 165.46 160.21 165.49 159.97 165.54C159.83 165.57 161.66 163.93 161.36 161.38C161.35 161.3 160.64 161.09 160.65 161.93C160.67 163.66 160.14 165.42 158.95 165.96C158.44 166.19 158.31 166.39 158.27 166.41C158.18 165.96 158.67 165.36 158.84 164.94C159.08 164.32 159.19 162.77 159.12 162.43C158.62 160.1 155.98 158.82 152.51 159.92C152.69 159.86 152.25 159.79 152.77 159.11C153.19 158.56 155.44 157.94 155.62 157.82C154.87 157.41 154.45 157.16 154.01 156.94C150.32 155.08 146.62 153.25 142.94 151.36C142.04 150.9 141.2 150.28 140.39 149.67C139.96 149.35 139.59 149.32 139.1 149.43C136.43 150.04 133.76 150.63 131.09 151.2C129.84 151.47 129.72 151.46 129.58 152.63C129.12 156.55 128.99 160.42 131.24 163.97C132.56 166.05 133.78 168.19 135.05 170.29C135.29 170.68 135.58 171.03 135.88 171.43C136.88 170.74 138.51 171.18 139.5 172.17C139.43 172.1 141.42 174.93 141.54 176.33C141.68 177.92 139.4 181.05 139.13 180.8C139.01 180.68 139.6 179.29 139.78 178.24C139.99 177.01 139.75 176.16 139.28 176.79C138.95 177.22 139.41 177.69 138.6 180.51C138.18 182.38 135.71 183.49 136.54 182.24C137.86 180.27 136.73 177.82 136.54 177.97C135.86 178.55 137.38 181.97 134.49 183.76C133.73 184.23 132.09 184.67 133.54 182.81C135.6 180.17 133.25 176.13 132.28 175.7C130.7 175.02 129.39 176.6 128.96 176.17C128.54 175.75 128.96 174.8 130.49 174.33C130.96 174.18 132.02 173.8 132.07 173.38C132.12 172.96 131.27 172.04 130.76 171.27C129.19 168.91 127.6 166.56 126.01 164.21C122.67 159.29 119.31 154.37 115.97 149.45C115.31 148.47 114.52 147.65 113.46 147.09C111.94 146.28 110.4 145.5 108.96 144.58C107.88 143.9 106.99 143.97 105.88 144.54C97.49 148.85 74.75 161.13 71.8 162.39C69.43 163.22 66.65 163.26 65.78 161.85C65.24 161.02 65.67 160.04 66.2 159.36C66.82 158.55 78.97 149.12 83.96 145.09C84.41 144.73 85.01 144.48 85.58 144.34C89.31 143.39 93.08 142.59 96.79 141.54C103.32 139.69 109.66 137.28 115.88 134.56C123.56 131.19 131.47 126.37 138.28 121.41C141.34 119.18 144.16 116.7 146.6 113.8C148.87 111.1 150.71 108.16 151.53 104.68C151.77 103.66 151.88 102.63 151.6 101.58C151.02 103.75 150.15 105.78 148.94 107.66C147.06 110.57 144.76 113.12 142.21 115.46C139.46 117.98 136.4 120.08 133.27 122.12C127.45 125.91 121.35 129.15 114.99 131.93C106.38 135.68 98.12 137.74 89.1 140.35C88.03 140.66 86.94 140.92 85.84 141.04C84.68 141.16 84.3 140.61 84.67 139.49C84.89 138.83 85.17 138.17 85.57 137.61C87.45 134.95 88.78 133.41 90.73 130.8C91.03 130.4 91.61 130.14 92.11 129.97C93.39 129.55 94.71 129.27 95.98 128.83C103.02 126.39 109.75 123.24 116.27 119.64C118.87 118.2 121.36 116.57 123.89 115.01C124.65 114.54 124.63 114.51 124.88 113.99C119.61 116.62 114.27 119.44 108.79 121.97C103.57 124.38 98.27 126.97 92.59 128.61C91.69 128.87 92.37 128.22 92.47 128.05C92.88 127.35 93.05 127.12 93.44 126.47C93.03 126.09 92.7 125.77 92.36 125.47C86.92 120.74 81.49 116 76.02 111.31C73.37 109.04 70.68 106.82 67.93 104.67C62.32 100.3 56.64 96.01 51.02 91.65C49.04 90.11 47.13 88.48 45.23 86.85C44.82 86.5 44.48 86 44.28 85.51C43.95 84.71 44.43 84.24 45.27 84.47C45.91 84.65 46.53 84.91 47.16 85.14C46.33 84.45 45.65 83.69 45.01 82.89C44.05 81.7 44.13 80.76 45.28 79.73C46.73 78.43 48.41 78.25 50.07 79.12C52.79 80.54 55.5 81.98 58.09 83.61C64.69 87.79 71.2 92.1 77.76 96.34C82.41 99.35 87.04 102.37 91.72 105.32C95.77 107.88 100.04 109.28 104.78 109.32C105.77 109.33 106.78 108.56 107.48 107.84C109.52 105.74 111.58 103.65 113.7 101.62C117.46 98.01 121.33 94.53 125.54 91.44C128.27 89.43 130.99 87.39 133.69 85.34C135.43 84.03 136.85 82.42 137.63 80.37C138.17 78.94 138.57 77.45 138.87 75.95C140.17 69.59 142.99 64.12 148.07 59.96C151.86 56.86 156.13 55.08 161.1 55.02C164.62 54.98 167.93 55.78 171.11 57.16C172.05 57.57 172.85 57.56 173.76 57.15C175.54 56.36 178.2 55.18 180.03 54.48C181.62 53.88 185.78 52.33 185.24 53.2C185.39 52.96 179.45 58.1 177.86 59.79C171.98 66.09 180 69.5 180.19 69.72C178.55 69.61 174.62 68.67 173.09 68.33C172.19 68.13 170.83 67.59 170.19 66.6C170.07 67.71 169.89 68.49 171.85 69.32C173.62 70.07 179.11 70.61 182.13 71.09C183.2 71.26 185.31 71.56 185.31 71.56C185.31 71.56 185.69 72.15 184.9 72.38C183.83 72.69 182.5 72.8 181.41 73.04C179.38 73.5 178.15 74.56 177.4 76.48C176.1 79.78 175.45 83.18 175.93 86.72C176.18 88.6 176.54 90.48 177.01 92.32C178.29 97.34 178.62 102.39 178 107.53C177.04 115.45 174.2 122.64 169.64 129.15C165.11 135.61 159.4 140.79 152.41 144.5C151.59 144.94 150.77 145.38 150 145.9C148.77 146.74 148.62 147.82 149.53 149C149.81 149.36 150.15 149.71 150.54 149.95C153.23 151.69 155.94 153.41 158.66 155.11C158.93 155.28 159.43 155.36 159.68 155.22C161.06 154.88 161.32 154.52 162.26 155.21C163.33 155.99 165.26 157.68 165.44 158.9C165.43 159.61 165.04 160.5 164.85 161.09C163.99 163.58 162.12 164.9 162.8 163.54ZM178.59 150.35C180.92 150.48 183.38 152.4 184.22 152.92C185.06 153.44 183.24 154.18 183.24 154.18C183.24 154.18 180.47 155.66 178.85 156.64C177.23 157.61 173.6 157.94 173.99 158C174.38 158.06 176.26 158.91 177.04 160.2C177.82 161.5 181.06 163.76 181.06 163.76L178.66 164.28C178.66 164.28 177.17 163.44 175.68 161.69C174.19 159.94 172.24 160.2 171.6 160.46C170.95 160.72 170.43 160.07 167.91 161.63C165.38 163.19 165.25 162.86 165.25 162.86C165.25 162.86 165.38 162.54 166.09 161.17C166.8 159.81 166.35 158.51 165.96 157.35C165.57 156.18 163.69 154.89 163.69 154.89C162.13 154.11 165.05 153.79 165.76 153.33C166.47 152.88 169.26 152.62 170.49 152.68C171.72 152.74 172.69 151.86 174.12 151.12C176.78 149.76 175.98 149.61 176.95 149.41C177.92 149.21 176.25 150.22 178.59 150.35ZM205.62 200.03C205.37 203.27 204.09 206.09 202.05 208.6C201.31 209.51 200.7 210.53 200.04 211.51C199.65 212.1 199.36 212.76 198.91 213.3C198.19 214.16 197.34 214.86 196.09 214.69C195.62 214.62 195.15 214.53 194.68 214.45C192.93 214.15 191.17 213.89 189.44 213.53C186.67 212.95 184.36 211.47 182.1 209.83C179.37 207.84 177.49 205.23 175.92 202.32C175.03 200.68 174.19 199.03 173.72 197.21C173.49 196.32 173.64 195.54 174.24 194.85C178.41 190.09 183.49 186.78 189.72 185.44C194.01 184.68 198.93 185.84 200.01 186.24C201.12 186.65 202.19 187.15 203.25 187.68C204.15 188.13 204.75 188.9 204.86 189.9C205.14 192.41 205.37 194.93 205.58 197.45C205.67 198.3 205.69 199.18 205.62 200.03ZM205.07 183.64C203.37 185.79 203.53 185.21 201.56 184.44C200.79 184.14 196.1 182.17 193.43 182.34C185.13 182.33 179.61 184.82 174.33 190.31C173.65 191.01 173.11 191.85 172.49 192.6C171.48 193.8 170.8 193.89 169.39 193.22C167.15 192.16 165.64 190.3 164.2 188.41C163.25 187.17 163.31 185.63 163.54 184.16C164.7 177.04 168.27 171.59 174.62 168.01C179.82 165.08 185.37 164.31 191.22 165.07C194.59 165.51 197.77 166.44 200.6 168.34C204.17 170.74 206.35 173.39 206.39 177.85C206.27 181.18 205.71 182.83 205.07 183.64ZM245.87 116.74C245.2 118.29 244.12 119.52 242.88 120.86C240.88 123.01 238.35 124.84 234.91 126.61C233.2 127.49 231.44 128.4 230.25 130.09C230.01 130.44 229.93 130.9 230.05 131.36C230.17 131.82 230.45 132.19 230.83 132.38C230.98 132.46 231.14 132.53 231.29 132.6C231.91 132.9 232.56 133.21 233.03 133.65C234.29 134.83 234.67 136.25 234.14 137.75C234.04 138.03 233.87 138.3 233.7 138.58C233.52 138.87 233.33 139.17 233.21 139.51C232.97 140.2 232.42 140.58 231.84 140.98C231.71 141.07 231.57 141.17 231.44 141.26C230.23 142.16 228.74 142.77 227.01 143.08C224.33 143.55 221.45 143.33 217.95 142.39C217.51 142.27 217.06 142.14 216.62 142.02C215.41 141.68 214.17 141.32 212.91 141.09C211.43 140.82 209.51 140.64 207.72 141.61C206.4 142.33 205.75 143.64 206.03 145.04C206.1 145.38 206.9 146.61 208.55 149.06C208.91 149.6 209.23 150.07 209.43 150.38C210.85 152.57 210.4 154.92 208.27 156.37C204.71 158.79 200.77 159.46 196.55 158.37C193.67 157.62 191.04 156.03 188.71 154.62C187.74 154.03 186.79 153.35 185.88 152.69C184.11 151.41 182.29 150.1 180.13 149.35C179.84 149.25 179.55 149.13 179.27 149.01C178.71 148.78 178.13 148.54 177.52 148.44C176.13 148.21 174.71 148.17 173.5 148.16C173.47 148.16 173.44 148.16 173.41 148.16C172.63 148.16 172.06 148.18 171.23 148.39C169.59 148.8 168.62 150.16 167.34 151.72C167.12 151.98 166.76 151.89 166.7 151.71C166.69 151.6 166.69 151.49 166.72 151.44C166.92 151.04 167.2 150.66 167.52 150.25C169.41 147.81 171.83 145.76 174.9 144C175.49 143.66 176.11 143.36 176.71 143.07C177.15 142.86 177.58 142.65 178.01 142.42C178.33 142.25 178.64 142.06 178.95 141.87C179.37 141.62 179.79 141.36 180.23 141.16C181.82 140.43 183.42 140.34 184.97 140.9C187 141.63 188.71 143 190.04 144.94C192.79 148.96 196.47 151.73 201.29 153.43C201.58 153.53 201.87 153.62 202.17 153.71L202.54 153.82C203.34 153.94 203.34 153.26 202.78 153.16L202.51 153.05C202.31 152.97 202.11 152.88 201.91 152.79C201.53 152.61 201.15 152.45 200.77 152.28C199.92 151.91 199.04 151.52 198.25 151.05C195.45 149.39 193.05 147.02 191.15 144.02C189.58 141.56 187.5 139.95 184.96 139.24C184.98 139.23 185.01 139.22 185.03 139.22C185.87 138.95 186.7 138.69 187.54 138.43C189.33 137.87 191.19 137.29 192.99 136.65C197.67 134.97 201.57 133.97 205.26 133.5C207.08 133.27 208.96 133.03 210.83 133.07C213.11 133.13 215.38 133.97 217.97 135.71C220.33 137.3 222.64 138.17 225.03 138.36C226.39 138.47 227.77 138.44 229.11 138.4C229.56 138.39 230.02 138.38 230.47 138.37C230.68 138.37 230.85 138.24 230.99 138.13C231.04 138.09 231.09 138.05 231.14 138.02C231.24 137.96 231.29 137.84 231.26 137.73C231.23 137.62 231.13 137.54 231.01 137.53C230.36 137.51 229.72 137.5 229.09 137.49C227.69 137.47 226.38 137.45 225.06 137.31C222.26 137.01 219.85 135.63 217.67 134.18C216.79 133.6 215.82 133.15 214.88 132.71C214.46 132.52 214.04 132.32 213.63 132.12C213.59 132.1 213.55 132.08 213.5 132.06C213.59 132.02 213.67 131.99 213.76 131.96C214.09 131.84 214.43 131.71 214.76 131.58C215.53 131.28 216.32 130.98 217.12 130.74C220.74 129.68 223.64 127.44 225.77 125.59C227.41 124.17 229.1 122.7 231.17 121.9C232.63 121.33 234.15 120.77 235.81 120.2C239.04 119.08 241.72 117.52 243.75 115.21C244.59 114.25 244.39 114.04 244.32 113.95C244.25 113.86 243.9 113.63 243.12 114.45C240.9 116.78 238.32 118.22 235.48 119.1C232.77 119.94 230.61 120.79 228.73 121.78L229.3 120.93C231.38 117.83 232.52 114.52 232.69 111.09C233.05 103.95 234.62 98.44 237.65 93.76C237.72 93.66 237.74 93.54 237.76 93.4C237.77 93.33 237.79 93.25 237.81 93.15C237.83 93.04 237.78 92.92 237.68 92.86C237.58 92.8 237.45 92.82 237.37 92.9L237.15 93.11C237.04 93.21 236.97 93.28 236.91 93.36C235.84 94.68 234.96 96.24 234.28 97.99C232.86 101.68 231.98 105.7 231.66 109.93C231.28 114.93 229.37 119.33 225.82 123.37C225.8 123.4 225.77 123.42 225.74 123.45C226.45 119.86 225.84 116.59 223.86 113.45C222.08 110.62 221.06 107.64 221.2 104.58C221.22 104.19 220.95 103.95 220.84 103.94C220.84 103.94 220.06 103.78 220.21 105.13C220.24 105.42 220.23 105.98 220.25 106.27C220.31 107.18 220.4 107.85 220.68 108.72C221.32 110.7 222.13 112.76 223.15 115.02C223.9 116.68 224.7 118.64 224.75 120.77C224.81 123.63 223.75 125.68 221.5 127.06L221.21 127.24C220.65 127.58 220.07 127.94 219.49 128.25C215.87 130.14 212.5 131.25 209.18 131.66C207.25 131.9 205.29 132.21 203.41 132.52C202.52 132.67 201.63 132.81 200.73 132.95C200.72 132.95 200.7 132.95 200.69 132.96C200.71 132.93 200.72 132.91 200.74 132.88C202.37 130.49 203.13 127.78 203 124.82C202.88 122.24 202.89 119.47 203.7 116.74C204.56 113.84 205.76 111.76 207.51 110.22C208.18 109.63 207.77 109.3 207.77 109.3C207.69 109.19 207.04 109.14 206.31 109.89C205.61 110.62 204.99 111.38 204.49 112.21C202.79 115.02 201.93 118.25 201.72 122.69C201.7 123.19 201.68 123.7 201.67 124.21C201.63 125.51 201.6 126.86 201.37 128.14C200.8 131.34 199.09 133.35 196.14 134.27C192.34 135.45 188.52 136.78 184.82 138.06C183.25 138.6 181.69 139.15 180.12 139.68C180.16 139.58 180.21 139.48 180.25 139.38C180.5 138.81 180.76 138.21 180.94 137.6C181.17 136.83 181.28 136.01 181.38 135.23L181.41 135.01C181.73 132.68 182.18 130.79 183.35 129.14C183.77 128.55 184.23 127.97 184.68 127.4C184.96 127.05 185.23 126.71 185.5 126.35C185.63 126.17 185.74 125.98 185.85 125.8C185.9 125.72 185.94 125.63 185.99 125.55C186.03 125.48 186.04 125.38 186 125.31C185.96 125.24 185.89 125.18 185.81 125.16C185.65 125.13 185.41 125.11 185.23 125.29C183.71 126.72 181.86 128.7 181.05 131.42C180.61 132.91 180.29 134.45 179.98 135.94L179.83 136.68C179.51 138.25 178.75 139.5 177.58 140.42C176.08 141.59 174.83 142.49 173.66 143.25C171.65 144.55 169.08 146.36 167.07 148.85C166.93 149.02 166.78 149.19 166.63 149.37C166.26 149.76 165.72 149.23 166.47 148.27L168.26 145.82C169.56 143.7 170.96 141.85 172.28 139.74C172.45 139.47 172.64 139.22 172.85 138.96C173.09 138.66 173.33 138.34 173.53 138C173.74 137.63 173.91 137.23 174.08 136.85C174.23 136.51 174.38 136.15 174.56 135.83L175.09 134.87C176.77 131.85 178.5 128.73 180.26 125.69C181.07 124.3 182.35 123.25 184.09 122.57C186.06 121.79 188.34 122.24 189.63 123.64C190.05 124.11 190.49 124.54 190.91 124.93C191.83 125.76 192.98 125.89 194.08 125.3C195.18 124.71 195.92 123.76 196.21 122.57C196.48 121.49 196.66 120.37 196.85 119.29L196.99 118.48C197.08 117.95 197.15 117.41 197.22 116.87C197.35 115.83 197.49 114.76 197.8 113.76C198.48 111.51 199.94 109.58 202.11 108C204 106.64 205.83 105.99 207.81 106.02C209.05 106.04 209.99 106.54 210.69 107.55C211.76 109.1 211.9 110.77 211.11 112.52C210.8 113.21 210.43 113.89 210.08 114.55C209.84 114.99 209.61 115.43 209.39 115.87C208.82 117.01 208.81 118.17 209.37 119.06C209.92 119.93 210.98 120.43 212.21 120.38C214.05 120.34 215.74 119.64 217.53 118.19C218.41 117.47 218.82 116.6 218.73 115.6C218.65 114.6 218.55 113.35 218.23 112.21C217.95 111.2 217.54 110.22 217.15 109.27C217.03 108.99 216.91 108.7 216.8 108.42C216.27 107.09 216.14 105.81 216.42 104.51C216.76 102.91 218.1 101.73 219.69 101.66C220.17 101.64 220.69 101.66 221.22 101.72C222.24 101.84 223.12 102.39 223.71 103.26C224.26 104.07 224.95 104.76 225.87 105.43C226.24 105.7 226.65 105.76 227 105.61C227.37 105.44 227.61 105.07 227.67 104.57C227.73 104.02 227.68 103.45 227.63 102.91C227.59 102.49 227.53 102.08 227.48 101.66C227.4 101.04 227.31 100.41 227.28 99.78C227.17 97.55 227.24 94.65 228.78 92.03C230.11 89.77 231.79 88.34 233.93 87.65C236.71 86.76 239.32 87.37 241.91 89.51C242.85 90.29 243.4 91.23 243.52 92.33C243.85 95.18 243.22 97.65 241.65 99.67C241.12 100.35 240.54 101 239.97 101.63C239.67 101.97 239.36 102.31 239.06 102.65C237.57 104.37 236.66 106.09 236.28 107.91C236.13 108.64 236.25 109.3 236.63 109.78C236.99 110.24 237.58 110.5 238.26 110.51C238.88 110.51 239.49 110.42 240.08 110.32C240.28 110.29 240.48 110.25 240.69 110.22C240.96 110.18 241.24 110.13 241.51 110.07C241.97 109.98 242.41 109.9 242.86 109.87C244.34 109.79 245.35 110.42 245.97 111.75C246.7 113.27 246.66 114.91 245.87 116.74Z" fill="#367A3A"/>
<path d="M199.88 198.19C199.55 198.58 200.04 199.52 199.18 202.06C199.05 202.64 199.68 202.66 199.79 202.33C200.47 201.47 201.73 196.55 199.88 198.19Z" fill="#367A3A"/>
<path d="M270.01 370.07H0V372.14H270.01V370.07Z" fill="#005229"/>
<path d="M165.36 158.9C165.18 157.67 163.25 155.98 162.18 155.21C161.24 154.53 160.98 154.88 159.6 155.22C159.35 155.36 158.85 155.28 158.58 155.11C155.86 153.42 153.16 151.69 150.46 149.95C150.08 149.7 149.73 149.36 149.45 149C148.54 147.82 148.69 146.74 149.92 145.9C150.69 145.38 151.51 144.93 152.33 144.5C159.32 140.78 165.03 135.61 169.56 129.15C174.13 122.64 176.96 115.45 177.92 107.53C178.54 102.39 178.21 97.33 176.93 92.32C176.46 90.48 176.1 88.6 175.85 86.72C175.37 83.18 176.02 79.78 177.32 76.48C178.07 74.57 179.3 73.5 181.33 73.04C182.42 72.79 183.75 72.69 184.82 72.38C185.61 72.15 185.23 71.56 185.23 71.56C185.23 71.56 183.12 71.26 182.05 71.09C179.02 70.61 173.53 70.06 171.77 69.32C169.81 68.49 169.99 67.71 170.11 66.6C170.76 67.59 172.11 68.13 173.01 68.33C174.54 68.67 178.47 69.62 180.11 69.72C179.92 69.5 171.9 66.09 177.78 59.79C179.36 58.09 185.31 52.96 185.16 53.2C185.71 52.33 181.54 53.87 179.95 54.48C178.13 55.17 175.47 56.36 173.68 57.15C172.76 57.56 171.97 57.57 171.03 57.16C167.85 55.77 164.54 54.97 161.02 55.02C156.06 55.08 151.78 56.86 147.99 59.96C142.91 64.13 140.09 69.6 138.79 75.95C138.48 77.45 138.09 78.94 137.55 80.37C136.77 82.42 135.35 84.02 133.61 85.34C130.9 87.39 128.19 89.43 125.46 91.44C121.26 94.54 117.38 98.02 113.62 101.62C111.51 103.65 109.45 105.73 107.4 107.84C106.7 108.56 105.69 109.33 104.7 109.32C99.96 109.28 95.69 107.88 91.64 105.32C86.96 102.37 82.32 99.35 77.68 96.34C71.12 92.1 64.6 87.79 58.01 83.61C55.43 81.97 52.71 80.53 49.99 79.12C48.32 78.25 46.65 78.43 45.2 79.73C44.05 80.76 43.97 81.7 44.93 82.89C45.57 83.69 46.25 84.45 47.08 85.14C46.45 84.91 45.83 84.65 45.19 84.47C44.34 84.24 43.87 84.71 44.2 85.51C44.4 86.01 44.75 86.5 45.15 86.85C47.05 88.48 48.96 90.12 50.94 91.65C56.56 96.01 62.24 100.3 67.85 104.67C70.6 106.81 73.29 109.04 75.94 111.31C81.41 116 86.84 120.75 92.28 125.47C92.63 125.77 92.96 126.1 93.36 126.47C92.98 127.12 92.8 127.35 92.39 128.05C92.29 128.22 91.62 128.87 92.51 128.61C98.19 126.96 103.49 124.38 108.71 121.97C114.19 119.44 119.53 116.61 124.8 113.99C124.55 114.51 124.57 114.55 123.81 115.01C121.28 116.57 118.78 118.2 116.19 119.64C109.68 123.25 102.95 126.39 95.9 128.83C94.63 129.27 93.3 129.54 92.03 129.97C91.53 130.14 90.95 130.4 90.65 130.8C88.7 133.4 87.37 134.95 85.49 137.61C85.09 138.17 84.81 138.84 84.59 139.49C84.22 140.61 84.61 141.16 85.76 141.04C86.86 140.92 87.96 140.66 89.02 140.35C98.05 137.74 106.3 135.68 114.91 131.93C121.27 129.16 127.37 125.91 133.19 122.12C136.31 120.09 139.38 117.99 142.13 115.46C144.68 113.12 146.97 110.57 148.86 107.66C150.07 105.78 150.94 103.75 151.52 101.58C151.8 102.63 151.69 103.67 151.45 104.68C150.62 108.16 148.78 111.1 146.52 113.8C144.08 116.7 141.26 119.18 138.2 121.41C131.4 126.37 123.48 131.19 115.8 134.56C109.58 137.29 103.24 139.69 96.71 141.54C93.01 142.59 89.24 143.39 85.5 144.34C84.93 144.48 84.33 144.73 83.88 145.09C78.89 149.12 66.74 158.55 66.12 159.36C65.6 160.04 65.17 161.02 65.7 161.85C66.57 163.26 69.36 163.22 71.72 162.39C74.67 161.13 97.41 148.84 105.8 144.54C106.91 143.97 107.81 143.9 108.88 144.58C110.33 145.5 111.87 146.28 113.38 147.09C114.44 147.65 115.22 148.47 115.89 149.45C119.23 154.38 122.59 159.29 125.93 164.21C127.52 166.56 129.11 168.91 130.68 171.27C131.19 172.04 132.04 172.96 131.99 173.38C131.94 173.8 130.88 174.18 130.41 174.33C128.88 174.8 128.46 175.75 128.88 176.17C129.31 176.6 130.62 175.01 132.2 175.7C133.18 176.12 135.53 180.17 133.46 182.81C132.01 184.67 133.64 184.23 134.41 183.76C137.3 181.96 135.78 178.55 136.46 177.97C136.65 177.81 137.78 180.26 136.46 182.24C135.63 183.49 138.1 182.38 138.52 180.51C139.33 177.69 138.87 177.23 139.2 176.79C139.67 176.16 139.91 177.01 139.7 178.24C139.52 179.29 138.93 180.69 139.05 180.8C139.32 181.05 141.6 177.91 141.46 176.33C141.34 174.93 139.34 172.1 139.42 172.17C138.42 171.19 136.8 170.74 135.8 171.43C135.51 171.03 135.21 170.68 134.97 170.29C133.69 168.18 132.48 166.04 131.16 163.97C128.91 160.43 129.04 156.55 129.5 152.63C129.64 151.45 129.76 151.47 131.01 151.2C133.68 150.63 136.35 150.03 139.02 149.43C139.51 149.32 139.88 149.35 140.31 149.67C141.12 150.28 141.96 150.9 142.86 151.36C146.53 153.25 150.24 155.08 153.93 156.94C154.37 157.16 154.8 157.41 155.54 157.82C155.36 157.95 153.11 158.56 152.69 159.11C152.17 159.79 152.61 159.86 152.43 159.92C155.9 158.82 158.54 160.1 159.04 162.43C159.11 162.77 159.01 164.33 158.76 164.94C158.59 165.37 158.11 165.96 158.19 166.41C158.23 166.39 158.36 166.18 158.87 165.96C160.06 165.43 160.59 163.66 160.57 161.93C160.56 161.09 161.27 161.3 161.28 161.38C161.58 163.93 159.76 165.56 159.89 165.54C160.13 165.49 160.32 165.46 160.39 165.43C160.98 165.18 162.68 164.49 162.8 160.9C164.28 158.98 162.89 163.21 162.72 163.54C162.04 164.91 163.9 163.58 164.69 161.1C164.96 160.5 165.35 159.61 165.36 158.9ZM158.71 62.3C160.5 62.32 162.05 63.94 162 65.75C161.95 67.47 160.48 68.8 158.67 68.78C156.89 68.76 155.45 67.26 155.47 65.45C155.49 63.74 156.99 62.28 158.71 62.3ZM117.72 111.51C113.49 115.36 102.31 120.81 96.83 122.79C96.75 122.69 96.67 122.6 96.59 122.5C96.63 122.01 97.24 121.57 97.88 121.14C98.49 120.72 99.67 120.3 100.33 119.97C105.91 117.21 111.34 114.77 117.11 110.75C118.06 110.08 118.22 111.21 117.72 111.51ZM130.2 117.84C122.27 123.03 113.87 127.33 105.09 130.88C99.91 132.97 94.7 134.95 89.3 136.41C88.78 136.55 88.23 136.6 87.7 136.69C87.66 136.56 87.63 136.43 87.59 136.3C95.54 133.35 103.46 130.31 111.15 126.74C118.9 123.14 126.41 119.08 133.77 114.75C133.84 114.88 133.92 115.01 133.99 115.14C132.73 116.04 131.5 116.99 130.2 117.84Z" fill="white"/>
<path d="M242.89 109.86C242.44 109.89 242.01 109.97 241.54 110.06C241.27 110.11 240.99 110.17 240.72 110.21C240.52 110.24 240.32 110.27 240.11 110.31C239.52 110.41 238.91 110.5 238.29 110.5C237.6 110.49 237.02 110.23 236.66 109.77C236.28 109.29 236.15 108.63 236.31 107.9C236.69 106.08 237.6 104.36 239.09 102.64C239.39 102.3 239.69 101.96 240 101.62C240.57 100.99 241.15 100.34 241.68 99.66C243.25 97.63 243.88 95.16 243.55 92.32C243.42 91.23 242.88 90.28 241.94 89.5C239.35 87.36 236.74 86.76 233.96 87.64C231.82 88.32 230.14 89.75 228.81 92.02C227.27 94.64 227.2 97.54 227.31 99.77C227.34 100.39 227.42 101.03 227.51 101.65C227.57 102.07 227.62 102.48 227.66 102.9C227.71 103.44 227.76 104 227.7 104.56C227.65 105.05 227.41 105.43 227.03 105.6C226.68 105.76 226.27 105.69 225.9 105.42C224.97 104.74 224.29 104.05 223.74 103.25C223.15 102.38 222.26 101.84 221.25 101.71C220.72 101.64 220.2 101.62 219.72 101.65C218.13 101.73 216.79 102.9 216.45 104.5C216.17 105.81 216.3 107.09 216.83 108.41C216.94 108.69 217.06 108.98 217.18 109.26C217.57 110.21 217.98 111.19 218.26 112.2C218.58 113.34 218.68 114.59 218.76 115.59C218.84 116.59 218.44 117.46 217.56 118.18C215.77 119.63 214.08 120.33 212.24 120.37C211.02 120.41 209.95 119.92 209.4 119.05C208.84 118.17 208.85 117.01 209.42 115.86C209.64 115.42 209.88 114.98 210.11 114.54C210.46 113.88 210.83 113.2 211.14 112.51C211.93 110.77 211.79 109.1 210.72 107.54C210.02 106.53 209.08 106.03 207.84 106.01C205.86 105.98 204.03 106.63 202.14 107.99C199.96 109.57 198.51 111.5 197.83 113.75C197.53 114.74 197.39 115.82 197.25 116.86C197.18 117.4 197.11 117.94 197.02 118.47L196.88 119.28C196.7 120.36 196.51 121.48 196.24 122.56C195.94 123.75 195.21 124.7 194.11 125.29C193.02 125.88 191.86 125.75 190.94 124.92C190.51 124.53 190.08 124.1 189.66 123.63C188.37 122.22 186.09 121.78 184.12 122.56C182.39 123.24 181.1 124.29 180.29 125.68C178.52 128.72 176.79 131.84 175.12 134.86L174.59 135.82C174.41 136.15 174.26 136.5 174.11 136.84C173.95 137.22 173.78 137.62 173.56 137.99C173.36 138.34 173.12 138.65 172.88 138.95C172.67 139.21 172.48 139.46 172.31 139.73C171 141.84 169.6 143.69 168.29 145.81L166.5 148.26C165.75 149.22 166.29 149.75 166.66 149.36C166.81 149.18 166.96 149.01 167.1 148.84C169.1 146.35 171.67 144.53 173.69 143.24C174.86 142.49 176.11 141.59 177.61 140.41C178.78 139.5 179.54 138.24 179.86 136.67L180.01 135.93C180.32 134.44 180.63 132.9 181.08 131.41C181.88 128.69 183.73 126.7 185.26 125.28C185.45 125.11 185.68 125.12 185.84 125.15C185.93 125.17 186 125.22 186.03 125.3C186.06 125.38 186.06 125.47 186.02 125.54C185.97 125.62 185.92 125.7 185.88 125.79C185.78 125.98 185.67 126.17 185.53 126.34C185.26 126.69 184.99 127.04 184.71 127.39C184.26 127.95 183.8 128.53 183.38 129.13C182.21 130.78 181.76 132.67 181.44 135L181.41 135.22C181.3 136.01 181.19 136.82 180.97 137.59C180.79 138.2 180.53 138.79 180.28 139.37C180.24 139.47 180.19 139.57 180.15 139.67C181.72 139.14 183.28 138.59 184.85 138.05C188.55 136.77 192.37 135.44 196.17 134.26C199.12 133.34 200.84 131.34 201.4 128.13C201.63 126.85 201.66 125.5 201.7 124.2C201.71 123.69 201.73 123.19 201.75 122.68C201.96 118.24 202.82 115 204.52 112.2C205.02 111.38 205.64 110.61 206.34 109.88C207.06 109.13 207.72 109.18 207.8 109.29C207.8 109.29 208.2 109.62 207.54 110.21C205.8 111.75 204.59 113.83 203.73 116.73C202.92 119.45 202.92 122.22 203.03 124.81C203.16 127.76 202.4 130.48 200.77 132.87C200.75 132.9 200.74 132.92 200.72 132.95C200.73 132.95 200.75 132.95 200.76 132.94C201.65 132.8 202.54 132.66 203.44 132.51C205.33 132.2 207.28 131.88 209.21 131.65C212.53 131.25 215.9 130.13 219.52 128.24C220.11 127.93 220.69 127.58 221.24 127.23L221.53 127.05C223.78 125.67 224.84 123.61 224.78 120.76C224.73 118.63 223.93 116.67 223.18 115.01C222.16 112.75 221.36 110.69 220.71 108.71C220.43 107.84 220.34 107.17 220.28 106.26C220.26 105.97 220.27 105.41 220.24 105.12C220.09 103.77 220.87 103.93 220.87 103.93C220.98 103.94 221.24 104.18 221.23 104.57C221.09 107.63 222.11 110.62 223.89 113.44C225.86 116.57 226.48 119.85 225.77 123.44C225.8 123.41 225.82 123.39 225.85 123.36C229.4 119.31 231.32 114.92 231.69 109.92C232.01 105.69 232.89 101.67 234.31 97.98C234.98 96.23 235.87 94.67 236.94 93.35C237 93.28 237.07 93.21 237.18 93.1L237.4 92.89C237.48 92.81 237.61 92.79 237.71 92.85C237.81 92.91 237.87 93.02 237.84 93.14C237.82 93.24 237.8 93.33 237.79 93.39C237.77 93.53 237.75 93.64 237.68 93.75C234.66 98.43 233.08 103.94 232.72 111.08C232.55 114.51 231.41 117.82 229.33 120.92L228.76 121.77C230.64 120.78 232.8 119.92 235.51 119.09C238.35 118.21 240.93 116.77 243.15 114.44C243.94 113.62 244.28 113.85 244.35 113.94C244.42 114.03 244.62 114.24 243.78 115.2C241.75 117.51 239.07 119.06 235.84 120.19C234.18 120.77 232.66 121.33 231.2 121.89C229.13 122.7 227.44 124.16 225.8 125.58C223.67 127.43 220.77 129.67 217.15 130.73C216.35 130.96 215.56 131.27 214.79 131.57C214.46 131.7 214.12 131.83 213.79 131.95C213.71 131.98 213.62 132.01 213.53 132.05C213.58 132.07 213.62 132.09 213.66 132.11C214.07 132.31 214.49 132.51 214.91 132.7C215.85 133.14 216.82 133.59 217.7 134.17C219.88 135.62 222.28 137 225.09 137.3C226.41 137.44 227.72 137.46 229.12 137.48C229.75 137.49 230.39 137.5 231.04 137.52C231.16 137.52 231.26 137.6 231.29 137.72C231.32 137.83 231.27 137.95 231.17 138.01C231.12 138.04 231.07 138.08 231.02 138.12C230.87 138.23 230.71 138.36 230.5 138.36C230.05 138.37 229.59 138.38 229.14 138.39C227.8 138.42 226.42 138.45 225.06 138.35C222.67 138.16 220.36 137.29 218 135.7C215.41 133.96 213.14 133.12 210.86 133.06C208.99 133.02 207.11 133.25 205.29 133.49C201.6 133.96 197.7 134.96 193.02 136.64C191.22 137.29 189.36 137.86 187.57 138.42C186.73 138.68 185.89 138.94 185.06 139.21C185.04 139.22 185.01 139.23 184.99 139.23C187.53 139.94 189.62 141.55 191.18 144.01C193.09 147.01 195.48 149.37 198.28 151.04C199.08 151.51 199.96 151.9 200.8 152.27C201.18 152.44 201.56 152.61 201.94 152.78C202.14 152.87 202.34 152.96 202.54 153.04L202.81 153.15C203.37 153.25 203.37 153.94 202.57 153.81L202.2 153.7C201.9 153.61 201.61 153.52 201.32 153.42C196.5 151.73 192.82 148.95 190.07 144.93C188.74 142.98 187.03 141.62 185 140.89C183.45 140.33 181.85 140.42 180.26 141.15C179.82 141.35 179.39 141.61 178.98 141.86C178.67 142.05 178.36 142.24 178.04 142.41C177.61 142.64 177.18 142.85 176.74 143.06C176.14 143.35 175.51 143.66 174.93 143.99C171.86 145.75 169.44 147.8 167.55 150.24C167.23 150.65 166.95 151.02 166.75 151.43C166.72 151.49 166.72 151.59 166.73 151.7C166.8 151.88 167.15 151.97 167.37 151.71C168.66 150.15 169.63 148.78 171.26 148.38C172.09 148.18 172.66 148.15 173.44 148.15C173.47 148.15 173.5 148.15 173.53 148.15C174.74 148.16 176.16 148.21 177.55 148.43C178.16 148.53 178.74 148.77 179.3 149C179.59 149.12 179.87 149.24 180.16 149.34C182.32 150.08 184.15 151.4 185.91 152.68C186.82 153.34 187.77 154.02 188.74 154.61C191.07 156.02 193.7 157.61 196.58 158.36C200.8 159.46 204.74 158.79 208.3 156.36C210.43 154.91 210.88 152.56 209.46 150.37C209.26 150.06 208.94 149.59 208.58 149.05C206.93 146.6 206.13 145.37 206.06 145.03C205.78 143.63 206.43 142.32 207.75 141.6C209.54 140.63 211.46 140.82 212.94 141.08C214.19 141.31 215.44 141.66 216.65 142.01C217.09 142.14 217.54 142.26 217.98 142.38C221.48 143.32 224.36 143.55 227.04 143.07C228.77 142.76 230.26 142.15 231.47 141.25C231.6 141.15 231.73 141.06 231.87 140.97C232.45 140.57 233 140.19 233.24 139.5C233.36 139.16 233.55 138.86 233.73 138.57C233.91 138.29 234.08 138.02 234.17 137.74C234.7 136.23 234.31 134.81 233.06 133.64C232.59 133.2 231.94 132.89 231.32 132.59C231.17 132.52 231.01 132.44 230.86 132.37C230.48 132.18 230.2 131.81 230.08 131.35C229.96 130.89 230.04 130.43 230.28 130.08C231.47 128.39 233.23 127.48 234.94 126.6C238.37 124.83 240.9 123.01 242.91 120.85C244.15 119.52 245.23 118.29 245.9 116.73C246.69 114.89 246.73 113.26 246.03 111.73C245.38 110.41 244.37 109.78 242.89 109.86Z" fill="white"/>
<path d="M204.87 189.89C204.76 188.89 204.16 188.12 203.26 187.67C202.2 187.14 201.13 186.64 200.02 186.23C198.94 185.83 194.02 184.67 189.73 185.43C183.5 186.77 178.43 190.08 174.25 194.84C173.64 195.53 173.5 196.31 173.73 197.2C174.2 199.02 175.04 200.67 175.93 202.31C177.5 205.22 179.38 207.83 182.11 209.82C184.37 211.47 186.68 212.95 189.45 213.52C191.19 213.88 192.94 214.14 194.69 214.44C195.16 214.52 195.63 214.61 196.1 214.68C197.35 214.85 198.2 214.15 198.92 213.29C199.37 212.76 199.66 212.09 200.05 211.5C200.7 210.52 201.31 209.5 202.06 208.59C204.11 206.08 205.39 203.26 205.63 200.02C205.7 199.16 205.67 198.29 205.6 197.43C205.38 194.92 205.15 192.4 204.87 189.89ZM199.17 202.06C200.03 199.52 199.54 198.58 199.87 198.19C201.73 196.55 200.47 201.47 199.77 202.34C199.67 202.67 199.04 202.64 199.17 202.06ZM203.68 197.73C203.61 199.26 203.38 200.8 203.1 202.31C202.8 203.95 201.82 205.25 200.78 206.47C200.71 206.55 200.33 206.72 200.06 206.59C199.41 206.41 200.6 204.76 200.99 204.12C202.87 201.04 202.38 196.69 201.32 191.47C201.28 191.28 202.06 190.92 202.34 191.1C202.56 191.14 202.99 191.38 203.04 191.57C203.59 193.44 203.78 195.78 203.68 197.73Z" fill="white"/>
<path d="M200.6 168.35C197.77 166.45 194.58 165.52 191.22 165.08C185.37 164.32 179.82 165.09 174.62 168.02C168.27 171.6 164.69 177.05 163.54 184.17C163.3 185.64 163.25 187.18 164.2 188.42C165.64 190.31 167.15 192.17 169.39 193.23C170.8 193.9 171.48 193.81 172.49 192.61C173.12 191.86 173.66 191.03 174.33 190.32C179.61 184.83 185.13 182.34 193.43 182.35C196.1 182.18 200.79 184.15 201.56 184.45C203.53 185.22 203.37 185.8 205.07 183.65C205.71 182.84 206.27 181.19 206.39 177.87C206.35 173.4 204.17 170.74 200.6 168.35Z" fill="white"/>
<path d="M111.63 193.2C109.93 192.69 107.42 192.73 104.91 192.95C103.28 193.09 101.76 193.64 100.35 194.47C99.07 195.22 97.66 195.71 96.66 197C95.9 197.98 95.27 198.97 94.85 200.11C94.19 201.89 94.33 203.66 95.14 205.35C95.53 206.17 95.68 206.17 96.47 205.72C98.83 204.39 101.34 203.47 104.07 203.77C109.51 204.37 114.61 205.89 118.67 209.85C119.27 210.43 119.59 210.44 120.21 209.88C121.03 209.15 121.6 208.25 121.82 207.19C122.58 203.59 121.73 200.36 119.45 197.52C117.65 195.25 115.1 194.18 111.63 193.2Z" fill="white"/>
<path d="M110.67 207.2C107.01 206.07 104.09 205.81 101.12 206.28C99.39 206.55 97.66 206.87 96.13 207.82C95.37 208.29 94.92 208.91 94.84 209.82C94.78 210.56 94.62 211.28 94.56 212.02C94.28 215.32 94.62 218.51 96.65 221.26C97.93 223 99.34 224.66 100.79 226.28C101.24 226.79 101.96 227.07 102.59 227.39C102.85 227.52 103.23 227.42 103.53 227.5C104.71 227.79 105.86 227.9 106.88 227.03C106.98 226.94 107.12 226.9 107.25 226.85C109.65 225.97 111.73 224.58 113.61 222.88C115.43 221.24 116.88 219.38 117.46 216.94C117.68 216 118.02 215.09 118.37 214.19C118.74 213.24 118.56 212.46 117.89 211.71C115.71 209.27 112.89 207.95 110.67 207.2ZM110.31 218.53C110.43 218.4 110.7 218.41 110.9 218.35C110.91 218.57 111.01 218.83 110.93 218.99C110.55 219.68 109.9 219.99 109.17 220.17C109.12 220.12 109.08 220.07 109.03 220.03C109.45 219.53 109.85 219 110.31 218.53ZM108.53 223.38C108.47 223.4 108.4 223.42 108.33 223.42C108.29 223.42 108.26 223.38 108.06 223.26C111.03 221.24 113.65 218.97 114.71 215.37C114.82 215.4 114.93 215.43 115.04 215.47C115.07 215.69 115.18 215.93 115.12 216.13C114.16 219.66 112.01 222.13 108.53 223.38Z" fill="white"/>
<path d="M157.21 161.92C156.6 160.69 154.57 160.41 153.38 160.53C152.74 160.6 150.91 160.62 148.58 162.8C148.05 163.29 147.31 164.37 146.65 164.83C145.22 165.82 143.77 166.68 142.35 167.53C140.92 168.38 139.51 169.22 138.17 170.16C140.03 170.54 142.28 172.92 142.32 176.22C142.44 176.75 142.74 176.46 145.29 174.98C145.7 174.74 147.63 173.54 148.14 173.66C148.49 173.74 148.45 172.63 149.12 172.34C150.59 171.7 152.8 168.94 154.16 168.27C157.97 166.4 156.68 166.34 156.72 166.25C157.27 164.83 157.77 163.06 157.21 161.92Z" fill="white"/>
<path d="M132.85 178.22C131.95 176.32 131.43 176.27 130.48 176.32C129.27 176.58 128.49 176.55 127.82 176.76C125.29 177.53 124.7 176.3 122.16 177.06C119.29 177.93 116.48 179.04 113.4 179.03C113.03 179.03 112.54 179.36 112.32 179.69C111.87 180.37 111.3 180.78 110.54 180.99C109.88 181.17 109.24 181.44 108.58 181.61C105.49 182.4 102.38 183.13 99.29 183.95C95.22 185.02 91.16 186.15 87.1 187.27C86.27 187.5 85.49 187.48 84.67 187.2C78.37 185.05 72.87 181.57 67.91 177.18C65.95 175.44 64.05 173.62 62.12 171.85C61.41 171.2 60.98 171.25 60.48 172.08C60.15 172.63 59.92 173.24 59.57 173.76C59.38 174.04 58.99 174.4 58.74 174.37C56.7 174.12 54.59 174.05 52.66 173.41C48.91 172.18 45.25 170.67 41.94 168.43C39.63 166.87 37.13 165.58 35.28 163.42C35.19 163.32 35.06 163.23 34.94 163.17C34.43 162.92 34.01 163.11 33.98 163.67C33.95 164.13 34.06 164.6 34.16 165.06C34.28 165.61 34.63 166.18 34.55 166.69C34.29 168.45 34.98 169.83 36.27 170.8C37.64 171.82 39.15 172.72 40.72 173.39C46.19 175.74 51.98 176.98 57.81 178.04C59.44 178.34 61.08 178.59 62.7 178.93C64.22 179.25 65.4 180.21 66.6 181.15C68.89 182.94 71.25 184.64 73.56 186.4C75.27 187.7 76.87 189.16 78.99 189.82C79.66 190.03 80.29 190.34 81.13 190.68C80.62 191.03 80.27 191.3 79.9 191.51C77.25 193.04 74.59 194.54 71.94 196.08C71.48 196.35 71.12 196.77 70.67 197.06C69.76 197.65 68.82 198.19 67.91 198.79C67.6 198.99 67.4 199.34 67.09 199.55C66.37 200.03 65.61 200.47 64.87 200.93C63.99 201.48 63.16 202.17 62.21 202.55C60.59 203.2 58.9 203.68 57.23 204.21C56.55 204.43 55.85 204.56 55.18 204.79C54.61 204.99 54.53 205.39 55.03 205.71C55.82 206.23 56.63 206.73 57.49 207.12C58.33 207.5 59.24 207.44 60.02 206.96C63.15 205.04 66.26 203.09 69.38 201.15C69.44 201.11 69.49 201.06 69.54 201.01C70.22 200.46 70.87 199.86 71.59 199.37C72.6 198.69 73.68 198.1 74.72 197.46C75.13 197.21 75.52 196.93 75.93 196.68C76.84 196.13 77.76 195.58 78.68 195.05C79.17 194.77 79.68 194.55 80.19 194.32C80.4 194.23 80.62 194.16 80.83 194.09C82.15 193.65 83.47 193.18 84.81 192.8C85.43 192.62 86.09 192.61 86.74 192.54C86.86 192.53 87.09 192.57 87.1 192.63C87.14 192.76 87.11 192.94 87.04 193.07C86.98 193.19 86.79 193.24 86.74 193.35C86.65 193.56 86.53 193.83 86.6 194C86.66 194.14 86.98 194.24 87.18 194.23C87.7 194.21 88.22 194.16 88.73 194.04C89 193.97 89.28 193.77 89.47 193.56C89.92 193.08 90.22 192.37 90.76 192.08C91.92 191.44 93.19 190.97 94.44 190.49C94.87 190.33 95.37 190.39 95.83 190.3C97.89 189.89 99.95 189.45 102.01 189.05C102.48 188.96 111.08 187.33 111.42 187.82C111.07 190.38 107.54 190.91 107.31 190.94C106.69 191.94 110.69 191.87 111.17 191.69C114.75 190.33 112.75 186.56 116.35 185.23C121.64 183.28 125.4 186.01 130.7 184.11C131.39 183.86 132.13 183.5 132.71 182.13C133.16 181.33 133.39 179.38 132.85 178.22Z" fill="white"/>
<path d="M176.94 149.42C175.97 149.61 176.77 149.77 174.11 151.13C172.68 151.86 171.71 152.75 170.48 152.69C169.25 152.63 166.46 152.88 165.75 153.34C165.04 153.79 162.12 154.12 163.68 154.9C163.68 154.9 165.56 156.2 165.95 157.36C166.34 158.53 166.79 159.82 166.08 161.18C165.37 162.54 165.24 162.87 165.24 162.87C165.24 162.87 165.37 163.19 167.9 161.64C170.43 160.08 170.95 160.73 171.59 160.47C172.24 160.21 174.18 159.95 175.67 161.7C177.16 163.45 178.65 164.29 178.65 164.29L181.05 163.77C181.05 163.77 177.81 161.5 177.03 160.21C176.25 158.91 174.37 158.07 173.98 158.01C173.59 157.95 177.22 157.62 178.84 156.65C180.46 155.68 183.23 154.19 183.23 154.19C183.23 154.19 185.06 153.44 184.21 152.93C183.37 152.41 180.91 150.49 178.58 150.36C176.25 150.22 177.92 149.22 176.94 149.42Z" fill="white"/>
<path d="M269.8 277.31V219.49L247.84 239.18C247.64 239.31 247.53 239.71 247.53 239.99C247.52 244.54 247.54 259.78 247.54 264.33C247.53 292.74 247.51 321.15 247.49 349.56C247.49 349.89 247.49 350.22 247.49 350.6C255 350.6 262.4 350.6 269.8 350.6V314.42L260.78 317.55V346.46C259.26 346.46 257.85 346.46 256.34 346.46C256.33 346.25 256.3 345.99 256.3 345.73C256.3 338.87 256.29 332.01 256.3 325.16C256.31 304.51 256.33 283.87 256.35 263.22C256.35 258.69 256.3 245.72 256.2 241.19C256.14 238.46 258.13 235.67 260.67 234.66C260.69 234.65 260.7 242.81 260.72 242.8V281.34L269.8 277.31Z" fill="#003116"/>
<path d="M23.48 280.44C23.54 272.26 23.59 250.72 23.66 242.54C23.66 242.28 23.52 242.02 23.15 241.72L14.25 233.76C14.25 242.93 14.25 268.43 14.25 277.55C13.79 277.4 11.1 274.93 9.62996 277.23C9.61996 277.24 9.58997 277.23 9.49997 277.23C9.49997 277 9.49997 276.76 9.49997 276.53C9.52997 272.8 9.57996 269.06 9.59996 265.33C9.62996 259.23 9.62996 236.12 9.65996 230.03C9.65996 229.6 9.51996 229.45 9.14996 229.17L0.219971 221.05C0.219971 257.42 0.219971 314.27 0.219971 350.58C3.27997 350.58 6.29996 350.58 9.40996 350.58C9.40996 334.33 9.40996 318.88 9.40996 302.42C10.73 303.9 12.44 304.54 13.98 304.93C13.98 320.73 13.98 334.77 13.98 350.57C17.08 350.57 20.12 350.57 23.21 350.57C23.21 333.92 23.21 319.06 23.21 302.41C22.93 302.34 22.65 302.26 22.36 302.21C19.05 301.64 12.41 298.8 12.41 298.8C11.05 298.61 9.24996 295.9 9.53996 290.42C9.65996 288.75 9.90996 287.1 10.65 285.57C11.04 284.76 11.33 284.64 12.17 284.88C14.36 285.52 21.76 289.32 23.36 289.85C23.36 289.53 23.36 287.78 23.36 287.55C23.41 285.16 23.46 282.8 23.48 280.44Z" fill="#003116"/>
<path d="M51.07 330.97C51.08 323.74 51.07 316.52 51.1 309.29C51.12 304.28 51.18 299.27 51.22 294.25C51.26 287.91 51.28 274.06 51.33 267.72C51.33 267.28 51.14 266.81 50.76 266.55L42.19 258.86C42.07 271.44 41.96 292.39 41.84 304.86C41.78 304.88 41.97 303.02 37.35 301.96C37.35 299.79 37.62 258.14 37.62 255.21C37.62 254.91 37.41 254.51 37.16 254.33C37.17 254.26 28.41 246.46 28.41 246.46C28.27 262.18 28.13 287.96 27.99 303.54C27.99 303.54 38.57 307.38 38.86 307.54C42.97 309.75 41.79 314.71 41.79 315.44C41.81 326.43 41.8 334.92 41.8 345.9C41.8 346.16 41.8 346.42 41.8 346.6C40.2 346.6 38.71 346.6 37.2 346.6C37.2 346.19 37.2 345.9 37.2 345.61C37.2 337.94 37.2 330.27 37.21 322.6C37.21 322.07 37.11 321.83 36.52 321.75C34.84 321.53 29.19 319.19 28.01 319.02C28.01 329.11 28.01 340.53 28.01 350.54C35.68 350.54 43.3 350.54 51.03 350.54C51.03 350.23 51.03 349.99 51.03 349.75C51.04 343.51 51.06 337.24 51.07 330.97Z" fill="#003116"/>
<path d="M242.38 290.57C242.96 290.34 243.12 290.05 243.12 289.45C243.09 279.2 243.09 267.31 243.08 257.06C243.08 255.87 243.08 244.73 243.08 243.36C242.71 243.65 228.81 256.4 222.09 262.15C221.83 262.37 221.68 262.86 221.68 263.22C221.67 271.13 221.67 288.01 221.69 295.93C221.69 297.23 221.72 298.54 221.85 299.83C222.06 302.09 222.65 304.22 224.17 306C225.08 307.06 226.19 307.83 227.5 308.3C227.45 308.4 227.43 308.45 227.4 308.48C227.26 308.61 227.11 308.74 226.96 308.87C223.35 311.98 221.61 315.87 221.66 320.67C221.75 328.93 221.67 337.19 221.66 345.45C221.66 345.7 221.63 345.94 221.63 346.19C221.63 347.61 221.63 349.04 221.63 350.49H230.17V350.55C234.44 350.55 238.71 350.55 243.01 350.55C243.01 340.57 243.01 330 243.01 319.98C240.37 320.48 237.77 321.61 235.16 322.07C234.64 322.16 234.48 322.33 234.48 322.86C234.49 326.57 234.45 330.28 234.44 333.99C234.43 337.78 234.44 341.56 234.43 345.35C234.43 345.83 234.37 346.31 234.34 346.82C232.93 346.82 231.61 346.82 230.2 346.82C230.2 345.49 230.2 344.22 230.2 342.95C230.21 334.67 230.2 326.38 230.24 318.1C230.25 316.68 230.33 315.25 230.55 313.84C230.92 311.46 231.71 309.29 234.25 308.33C234.37 308.28 234.51 308.08 234.51 307.95C234.53 306.68 234.52 305.41 234.52 304.14C232.51 304.19 231.86 303.73 231.2 301.86C231.16 301.74 231.12 301.63 231.08 301.51C230.41 299.37 230.27 297.16 230.25 294.95C230.19 287.65 230.25 270.46 230.15 263.16C230.13 261.68 230.48 260.67 231.77 259.91C232.66 259.38 233.44 258.66 234.27 258.02C234.34 258.05 234.4 258.08 234.47 258.11C234.47 266.15 234.47 286.48 234.47 294.58C234.5 294.61 242.38 290.92 242.38 290.57Z" fill="#003116"/>
<path d="M146.13 317.38C147.08 317.01 147.98 316.81 148.74 316.34C149.49 315.87 150.1 315.36 150.81 314.7C150.81 326.71 150.81 338.48 150.81 350.5H160.11C160.11 330.84 160.11 311.23 160.11 291.57C157 291.57 153.93 291.57 150.81 291.57C150.81 291.89 150.81 292.16 150.81 292.43C150.81 296.98 150.83 301.52 150.8 306.07C150.79 308.47 150.22 310.69 148.56 312.46C147.92 313.14 147.14 313.53 146.11 313.54C146.11 306.19 146.11 298.89 146.11 291.58C142.96 291.58 139.9 291.58 136.84 291.58C136.84 311.26 136.84 330.89 136.84 350.51H146.13C146.13 339.37 146.13 328.29 146.13 317.38Z" fill="#003116"/>
<path d="M204.78 296.67C206.36 295.48 207.44 293.2 208.61 290.43V350.5H217.22V266.65C216.65 267.09 212.83 270.53 208.58 274.37C208.6 277.31 208.62 276.81 208.62 276.86C208.6 282.61 203.04 297.64 195.48 298.9V350.5H204.29V297.58C204.29 297.22 204.49 296.89 204.78 296.67Z" fill="#003116"/>
<path d="M174.11 317.16C176.06 317.11 177.39 316.02 178.61 314.3C178.61 326.51 178.61 338.49 178.61 350.49H187.5C187.5 330.82 187.5 311.21 187.5 291.58C184.53 291.58 181.6 291.58 178.63 291.58C178.63 291.94 178.63 292.23 178.63 292.53C178.63 296.95 178.63 301.38 178.63 305.8C178.63 308.03 178.23 310.15 176.89 311.95C176.2 312.88 175.35 313.49 174.13 313.53C174.13 306.21 174.13 298.92 174.13 291.57C171 291.57 167.97 291.57 164.95 291.57C164.95 311.24 164.95 330.86 164.95 350.49H174.13C174.11 339.37 174.11 328.29 174.11 317.16Z" fill="#003116"/>
<path d="M64.99 349.57C64.99 339.08 64.98 328.58 65.01 318.09C65.01 317.37 65.15 316.62 65.4 315.94C65.81 314.83 66.45 314.55 67.6 314.76C69.73 315.13 77.14 318.83 78.76 319.04C78.78 318.8 78.81 318.66 78.81 318.52C78.83 309.72 78.84 300.7 78.87 291.91C78.87 291.49 78.7 291.17 78.32 290.86L55.97 271.34C55.89 295.7 55.82 326.3 55.74 350.55C58.9 350.55 61.91 350.55 64.99 350.55C64.99 350.2 64.99 349.89 64.99 349.57ZM65.09 284.9C65.09 284.9 68.01 287.3 68.48 287.59C69.63 288.31 69.73 289.34 69.72 290.36C69.64 297.04 69.64 302.56 69.62 309.25C69.62 309.47 69.6 311.28 69.58 311.57C69.58 311.57 66.58 309.93 65.09 310.83C65.09 302.75 65.09 293.05 65.09 284.9Z" fill="#003116"/>
<path d="M118.24 323.34C119.66 324.67 121.3 324.01 122.85 324.29C122.85 333.06 122.85 341.78 122.85 350.5H131.94C131.94 340.53 131.94 330.6 131.94 320.63C131.66 320.63 131.43 320.63 131.2 320.63C127.72 320.63 124.23 320.62 120.75 320.64C119.86 320.65 119.24 320.26 118.79 319.49C118.18 318.43 118.06 317.26 118.32 316.08C118.65 314.53 119.34 313.48 121.25 313.54C124.57 313.65 127.89 313.57 131.21 313.57C131.45 313.57 131.7 313.57 131.94 313.57C131.94 306.17 131.94 298.88 131.94 291.56C128.89 291.56 125.88 291.56 122.78 291.56C122.78 297.7 122.78 303.81 122.78 309.93C121.18 310.03 119.58 309.62 118.17 310.97C118.17 309.33 118.17 292.94 118.17 291.56C115.14 291.56 112.18 291.56 109.22 291.56C109.22 298.86 109.22 342.77 109.22 350.5H118.22C118.24 347.91 118.24 325.11 118.24 323.34Z" fill="#003116"/>
<path d="M106.97 336.08C103.78 336.08 100.64 336.08 97.43 336.08C97.43 339.74 97.43 343.34 97.43 346.92C95.86 346.92 94.37 346.92 92.89 346.92C92.89 329.64 92.89 312.42 92.89 295.18C94.42 295.18 95.91 295.18 97.46 295.18C97.46 296.46 97.46 304.11 97.46 305.41C100.68 305.41 103.84 305.41 106.99 305.41C106.99 302.96 106.99 293.99 106.99 291.51H83.62C83.62 311.53 83.62 330.59 83.62 350.51H106.97C106.97 345.66 106.97 340.86 106.97 336.08Z" fill="#003116"/>
<path d="M176.39 288.71C178.113 288.71 179.51 287.233 179.51 285.41C179.51 283.587 178.113 282.11 176.39 282.11C174.667 282.11 173.27 283.587 173.27 285.41C173.27 287.233 174.667 288.71 176.39 288.71Z" fill="#003116"/>
<path d="M221.64 350.5C221.64 350.52 221.64 350.54 221.64 350.56C224.5 350.56 227.34 350.56 230.18 350.56V350.5H221.64Z" fill="white"/>
<path d="M217.22 350.5H208.61V350.54H217.22V350.5Z" fill="white"/>
<path d="M204.29 350.5H195.48V350.55H204.29V350.5Z" fill="white"/>
<path d="M106.97 350.56C106.97 350.54 106.97 350.52 106.97 350.5H83.62C83.62 350.52 83.62 350.54 83.62 350.56C91.43 350.56 99.19 350.56 106.97 350.56Z" fill="white"/>
</svg>
